<svg width="486" height="486" viewBox="0 0 486 486" fill="none" xmlns="http://www.w3.org/2000/svg">
<circle cx="243" cy="243" r="243" fill="#F5A623"/>
<circle cx="77" cy="93" r="60" fill="#37AEE3"/>
<g clip-path="url(#clip0)">
<path d="M37.34 111.232L36.3819 108.48L44.6597 105.696L38.7641 103.608L37.5187 100.048L44.6548 102.98L48.4008 96.3282L49.6462 99.8884L46.3031 105.132L50.9411 103.574L51.8992 106.327L37.34 111.232Z" fill="#4A4A4A"/>
<path d="M48.9622 90.9778C48.7887 94.3021 46.3501 96.5874 42.7343 96.3724C39.095 96.1641 36.9161 93.6789 37.0842 90.2926C37.2494 86.9833 39.6228 84.7798 43.0449 84.9857C43.4087 85.0104 43.7877 85.0435 44.1569 85.1302L43.7521 93.4963C45.469 93.4453 46.4731 92.3505 46.5442 90.8958C46.6147 89.6572 46.0215 88.9353 45.2615 88.5141L45.4194 85.3973C47.5246 86.1512 49.1166 88.154 48.9622 90.9778ZM41.817 93.3675L42.0865 87.934C40.5676 87.8786 39.5537 89.027 39.4812 90.5201C39.4131 91.8977 40.2461 93.0474 41.817 93.3675Z" fill="#4A4A4A"/>
<path d="M42.4466 72.4072L43.7782 69.646L56.0099 83.4228L54.6783 86.184L50.5677 81.4488L38.4451 80.6673L39.8448 77.7473L48.3869 78.6086L42.4466 72.4072Z" fill="#4A4A4A"/>
<path d="M61.3966 68.9714C59.0218 70.604 56.4007 70.3506 55.0765 68.6534L57.4832 66.9992C58.0711 67.6592 59.1153 67.7464 60.0714 67.0968C61.0039 66.4537 61.2201 65.6693 60.845 65.1272C59.6756 63.4374 55.0789 68.183 52.6588 64.6991C51.5625 63.1283 52.0822 60.9001 54.4169 59.3042C56.6961 57.7366 58.9504 58.0423 60.4031 59.8303L58.1239 61.3979C57.5527 60.7079 56.6094 60.6176 55.6769 61.2606C54.7846 61.867 54.588 62.5444 54.9631 63.0864C56.1697 64.8166 60.6473 60.1425 63.1395 63.5681C64.2495 65.1858 63.6994 67.3972 61.3966 68.9714Z" fill="#4A4A4A"/>
<path d="M64.0685 57.1239L62.7644 57.5414L62.0363 55.2704L63.3404 54.8529L62.4735 52.1512L65.2617 51.2784L66.1286 53.9802L68.579 53.2151L69.3071 55.4861L66.8567 56.2512L68.5561 61.5373C68.7841 62.2731 69.1945 62.5005 70.0666 62.2172L71.3624 61.8148L72.1195 64.1412L70.3682 64.6843C68.264 65.3267 66.5813 64.8857 65.7694 62.3716L64.0685 57.1239Z" fill="#4A4A4A"/>
<path d="M77.9062 52.1923C79.7585 52.2555 80.996 53.1772 81.6647 54.1572L81.7113 52.5317L84.648 52.6456L84.3193 64.1009L81.3825 63.987L81.4389 62.308C80.727 63.2699 79.3915 64.1024 77.5628 64.0326C74.6412 63.9271 72.3918 61.4617 72.505 57.8878C72.5725 54.2885 74.9695 52.0784 77.9062 52.1923ZM78.5686 54.761C77.011 54.7038 75.502 55.8136 75.4349 57.9781C75.3677 60.1426 76.816 61.4367 78.3736 61.4939C79.97 61.553 81.457 60.4112 81.5241 58.2467C81.5912 56.0823 80.1802 54.8285 78.5686 54.761Z" fill="#4A4A4A"/>
<path d="M89.6153 56.6957L88.3312 56.1807L89.1995 53.9687L90.4835 54.4837L91.5228 51.8555L94.2444 52.9312L93.2051 55.5595L95.6128 56.5203L94.7529 58.7173L92.3452 57.7564L90.3165 62.9227C90.041 63.635 90.2033 64.0591 91.0519 64.3918L92.3056 64.89L91.4123 67.1471L89.6998 66.4732C87.6431 65.6676 86.6032 64.246 87.5729 61.815L89.6153 56.6957Z" fill="#4A4A4A"/>
<path d="M95.8233 70.5155C93.5641 68.713 93.0179 66.1497 94.2558 64.4178L96.5606 66.2455C96.1052 66.9956 96.3229 68.0009 97.2343 68.7222C98.1306 69.4352 98.9537 69.4196 99.3533 68.9136C100.632 67.3225 94.7113 64.277 97.3347 61.013C98.5167 59.5253 100.811 59.4009 103.048 61.1715C105.224 62.9083 105.62 65.133 104.323 67.0087L102.146 65.2718C102.641 64.5235 102.45 63.6121 101.554 62.8991C100.695 62.2265 99.9895 62.2091 99.5816 62.73C98.2859 64.3512 104.094 67.3143 101.553 70.6439C100.307 72.1749 98.0301 72.2692 95.8233 70.5155Z" fill="#4A4A4A"/>
</g>
<path d="M100.027 186.644V202H96.9467V186.644H100.027ZM109.824 189.636C111.276 189.636 112.449 190.098 113.344 191.022C114.238 191.931 114.686 193.207 114.686 194.85V202H111.606V195.268C111.606 194.3 111.364 193.559 110.88 193.046C110.396 192.518 109.736 192.254 108.9 192.254C108.049 192.254 107.374 192.518 106.876 193.046C106.392 193.559 106.15 194.3 106.15 195.268V202H103.07V189.812H106.15V191.33C106.56 190.802 107.081 190.391 107.712 190.098C108.357 189.79 109.061 189.636 109.824 189.636ZM122.065 195.862C122.065 194.63 122.307 193.537 122.791 192.584C123.29 191.631 123.957 190.897 124.793 190.384C125.644 189.871 126.59 189.614 127.631 189.614C128.54 189.614 129.332 189.797 130.007 190.164C130.696 190.531 131.246 190.993 131.657 191.55V189.812H134.759V202H131.657V200.218C131.261 200.79 130.711 201.267 130.007 201.648C129.318 202.015 128.518 202.198 127.609 202.198C126.582 202.198 125.644 201.934 124.793 201.406C123.957 200.878 123.29 200.137 122.791 199.184C122.307 198.216 122.065 197.109 122.065 195.862ZM131.657 195.906C131.657 195.158 131.51 194.52 131.217 193.992C130.924 193.449 130.528 193.039 130.029 192.76C129.53 192.467 128.995 192.32 128.423 192.32C127.851 192.32 127.323 192.459 126.839 192.738C126.355 193.017 125.959 193.427 125.651 193.97C125.358 194.498 125.211 195.129 125.211 195.862C125.211 196.595 125.358 197.241 125.651 197.798C125.959 198.341 126.355 198.759 126.839 199.052C127.338 199.345 127.866 199.492 128.423 199.492C128.995 199.492 129.53 199.353 130.029 199.074C130.528 198.781 130.924 198.37 131.217 197.842C131.51 197.299 131.657 196.654 131.657 195.906ZM143.625 198.524C145.033 197.351 146.155 196.375 146.991 195.598C147.827 194.806 148.524 193.985 149.081 193.134C149.639 192.283 149.917 191.447 149.917 190.626C149.917 189.878 149.741 189.291 149.389 188.866C149.037 188.441 148.495 188.228 147.761 188.228C147.028 188.228 146.463 188.477 146.067 188.976C145.671 189.46 145.466 190.127 145.451 190.978H142.459C142.518 189.218 143.039 187.883 144.021 186.974C145.019 186.065 146.28 185.61 147.805 185.61C149.477 185.61 150.761 186.057 151.655 186.952C152.55 187.832 152.997 188.998 152.997 190.45C152.997 191.594 152.689 192.687 152.073 193.728C151.457 194.769 150.753 195.679 149.961 196.456C149.169 197.219 148.135 198.143 146.859 199.228H153.349V201.78H142.481V199.492L143.625 198.524ZM155.29 193.772C155.29 191.235 155.745 189.247 156.654 187.81C157.578 186.373 159.103 185.654 161.23 185.654C163.357 185.654 164.875 186.373 165.784 187.81C166.708 189.247 167.17 191.235 167.17 193.772C167.17 196.324 166.708 198.326 165.784 199.778C164.875 201.23 163.357 201.956 161.23 201.956C159.103 201.956 157.578 201.23 156.654 199.778C155.745 198.326 155.29 196.324 155.29 193.772ZM164.134 193.772C164.134 192.687 164.061 191.777 163.914 191.044C163.782 190.296 163.503 189.687 163.078 189.218C162.667 188.749 162.051 188.514 161.23 188.514C160.409 188.514 159.785 188.749 159.36 189.218C158.949 189.687 158.671 190.296 158.524 191.044C158.392 191.777 158.326 192.687 158.326 193.772C158.326 194.887 158.392 195.825 158.524 196.588C158.656 197.336 158.935 197.945 159.36 198.414C159.785 198.869 160.409 199.096 161.23 199.096C162.051 199.096 162.675 198.869 163.1 198.414C163.525 197.945 163.804 197.336 163.936 196.588C164.068 195.825 164.134 194.887 164.134 193.772ZM169.139 188.8V185.962H174.441V202H171.273V188.8H169.139ZM178.451 198.524C179.859 197.351 180.981 196.375 181.817 195.598C182.653 194.806 183.35 193.985 183.907 193.134C184.465 192.283 184.743 191.447 184.743 190.626C184.743 189.878 184.567 189.291 184.215 188.866C183.863 188.441 183.321 188.228 182.587 188.228C181.854 188.228 181.289 188.477 180.893 188.976C180.497 189.46 180.292 190.127 180.277 190.978H177.285C177.344 189.218 177.865 187.883 178.847 186.974C179.845 186.065 181.106 185.61 182.631 185.61C184.303 185.61 185.587 186.057 186.481 186.952C187.376 187.832 187.823 188.998 187.823 190.45C187.823 191.594 187.515 192.687 186.899 193.728C186.283 194.769 185.579 195.679 184.787 196.456C183.995 197.219 182.961 198.143 181.685 199.228H188.175V201.78H177.307V199.492L178.451 198.524ZM200.374 202.198C199.377 202.198 198.482 202.022 197.69 201.67C196.898 201.303 196.268 200.812 195.798 200.196C195.344 199.58 195.094 198.898 195.05 198.15H198.152C198.211 198.619 198.438 199.008 198.834 199.316C199.245 199.624 199.751 199.778 200.352 199.778C200.939 199.778 201.394 199.661 201.716 199.426C202.054 199.191 202.222 198.891 202.222 198.524C202.222 198.128 202.017 197.835 201.606 197.644C201.21 197.439 200.572 197.219 199.692 196.984C198.783 196.764 198.035 196.537 197.448 196.302C196.876 196.067 196.378 195.708 195.952 195.224C195.542 194.74 195.336 194.087 195.336 193.266C195.336 192.591 195.527 191.975 195.908 191.418C196.304 190.861 196.862 190.421 197.58 190.098C198.314 189.775 199.172 189.614 200.154 189.614C201.606 189.614 202.765 189.981 203.63 190.714C204.496 191.433 204.972 192.408 205.06 193.64H202.112C202.068 193.156 201.863 192.775 201.496 192.496C201.144 192.203 200.668 192.056 200.066 192.056C199.509 192.056 199.076 192.159 198.768 192.364C198.475 192.569 198.328 192.855 198.328 193.222C198.328 193.633 198.534 193.948 198.944 194.168C199.355 194.373 199.993 194.586 200.858 194.806C201.738 195.026 202.464 195.253 203.036 195.488C203.608 195.723 204.1 196.089 204.51 196.588C204.936 197.072 205.156 197.717 205.17 198.524C205.17 199.228 204.972 199.859 204.576 200.416C204.195 200.973 203.638 201.413 202.904 201.736C202.186 202.044 201.342 202.198 200.374 202.198ZM211.285 192.342V198.238C211.285 198.649 211.38 198.949 211.571 199.14C211.776 199.316 212.113 199.404 212.583 199.404H214.013V202H212.077C209.481 202 208.183 200.739 208.183 198.216V192.342H206.731V189.812H208.183V186.798H211.285V189.812H214.013V192.342H211.285ZM227.734 189.812V202H224.632V200.46C224.236 200.988 223.715 201.406 223.07 201.714C222.439 202.007 221.75 202.154 221.002 202.154C220.049 202.154 219.205 201.956 218.472 201.56C217.739 201.149 217.159 200.555 216.734 199.778C216.323 198.986 216.118 198.047 216.118 196.962V189.812H219.198V196.522C219.198 197.49 219.44 198.238 219.924 198.766C220.408 199.279 221.068 199.536 221.904 199.536C222.755 199.536 223.422 199.279 223.906 198.766C224.39 198.238 224.632 197.49 224.632 196.522V189.812H227.734ZM229.981 195.862C229.981 194.63 230.223 193.537 230.707 192.584C231.206 191.631 231.88 190.897 232.731 190.384C233.582 189.871 234.528 189.614 235.569 189.614C236.361 189.614 237.116 189.79 237.835 190.142C238.554 190.479 239.126 190.934 239.551 191.506V185.72H242.675V202H239.551V200.196C239.17 200.797 238.634 201.281 237.945 201.648C237.256 202.015 236.456 202.198 235.547 202.198C234.52 202.198 233.582 201.934 232.731 201.406C231.88 200.878 231.206 200.137 230.707 199.184C230.223 198.216 229.981 197.109 229.981 195.862ZM239.573 195.906C239.573 195.158 239.426 194.52 239.133 193.992C238.84 193.449 238.444 193.039 237.945 192.76C237.446 192.467 236.911 192.32 236.339 192.32C235.767 192.32 235.239 192.459 234.755 192.738C234.271 193.017 233.875 193.427 233.567 193.97C233.274 194.498 233.127 195.129 233.127 195.862C233.127 196.595 233.274 197.241 233.567 197.798C233.875 198.341 234.271 198.759 234.755 199.052C235.254 199.345 235.782 199.492 236.339 199.492C236.911 199.492 237.446 199.353 237.945 199.074C238.444 198.781 238.84 198.37 239.133 197.842C239.426 197.299 239.573 196.654 239.573 195.906ZM257.343 189.812L249.797 207.764H246.519L249.159 201.692L244.275 189.812H247.729L250.875 198.326L254.065 189.812H257.343ZM269.658 202.198C268.484 202.198 267.428 201.941 266.49 201.428C265.551 200.9 264.81 200.159 264.268 199.206C263.74 198.253 263.476 197.153 263.476 195.906C263.476 194.659 263.747 193.559 264.29 192.606C264.847 191.653 265.602 190.919 266.556 190.406C267.509 189.878 268.572 189.614 269.746 189.614C270.919 189.614 271.982 189.878 272.936 190.406C273.889 190.919 274.637 191.653 275.18 192.606C275.737 193.559 276.016 194.659 276.016 195.906C276.016 197.153 275.73 198.253 275.158 199.206C274.6 200.159 273.838 200.9 272.87 201.428C271.916 201.941 270.846 202.198 269.658 202.198ZM269.658 199.514C270.215 199.514 270.736 199.382 271.22 199.118C271.718 198.839 272.114 198.429 272.408 197.886C272.701 197.343 272.848 196.683 272.848 195.906C272.848 194.747 272.54 193.86 271.924 193.244C271.322 192.613 270.582 192.298 269.702 192.298C268.822 192.298 268.081 192.613 267.48 193.244C266.893 193.86 266.6 194.747 266.6 195.906C266.6 197.065 266.886 197.959 267.458 198.59C268.044 199.206 268.778 199.514 269.658 199.514ZM283.863 192.342H281.729V202H278.605V192.342H277.219V189.812H278.605V189.196C278.605 187.7 279.03 186.6 279.881 185.896C280.732 185.192 282.015 184.862 283.731 184.906V187.502C282.983 187.487 282.462 187.612 282.169 187.876C281.876 188.14 281.729 188.617 281.729 189.306V189.812H283.863V192.342ZM294.687 192.342V198.238C294.687 198.649 294.782 198.949 294.973 199.14C295.178 199.316 295.516 199.404 295.985 199.404H297.415V202H295.479C292.883 202 291.585 200.739 291.585 198.216V192.342H290.133V189.812H291.585V186.798H294.687V189.812H297.415V192.342H294.687ZM306.494 189.636C307.418 189.636 308.24 189.841 308.958 190.252C309.677 190.648 310.234 191.242 310.63 192.034C311.041 192.811 311.246 193.75 311.246 194.85V202H308.166V195.268C308.166 194.3 307.924 193.559 307.44 193.046C306.956 192.518 306.296 192.254 305.46 192.254C304.61 192.254 303.935 192.518 303.436 193.046C302.952 193.559 302.71 194.3 302.71 195.268V202H299.63V185.72H302.71V191.33C303.106 190.802 303.634 190.391 304.294 190.098C304.954 189.79 305.688 189.636 306.494 189.636ZM325.505 195.642C325.505 196.082 325.476 196.478 325.417 196.83H316.507C316.581 197.71 316.889 198.399 317.431 198.898C317.974 199.397 318.641 199.646 319.433 199.646C320.577 199.646 321.391 199.155 321.875 198.172H325.197C324.845 199.345 324.171 200.313 323.173 201.076C322.176 201.824 320.951 202.198 319.499 202.198C318.326 202.198 317.27 201.941 316.331 201.428C315.407 200.9 314.681 200.159 314.153 199.206C313.64 198.253 313.383 197.153 313.383 195.906C313.383 194.645 313.64 193.537 314.153 192.584C314.667 191.631 315.385 190.897 316.309 190.384C317.233 189.871 318.297 189.614 319.499 189.614C320.658 189.614 321.692 189.863 322.601 190.362C323.525 190.861 324.237 191.572 324.735 192.496C325.249 193.405 325.505 194.454 325.505 195.642ZM322.315 194.762C322.301 193.97 322.015 193.339 321.457 192.87C320.9 192.386 320.218 192.144 319.411 192.144C318.649 192.144 318.003 192.379 317.475 192.848C316.962 193.303 316.647 193.941 316.529 194.762H322.315ZM336.032 186.644V196.148C336.032 197.189 336.303 197.989 336.846 198.546C337.388 199.089 338.151 199.36 339.134 199.36C340.131 199.36 340.901 199.089 341.444 198.546C341.986 197.989 342.258 197.189 342.258 196.148V186.644H345.36V196.126C345.36 197.431 345.074 198.539 344.502 199.448C343.944 200.343 343.189 201.017 342.236 201.472C341.297 201.927 340.248 202.154 339.09 202.154C337.946 202.154 336.904 201.927 335.966 201.472C335.042 201.017 334.308 200.343 333.766 199.448C333.223 198.539 332.952 197.431 332.952 196.126V186.644H336.032ZM347.587 194.3C347.587 192.789 347.925 191.44 348.599 190.252C349.289 189.049 350.22 188.118 351.393 187.458C352.581 186.783 353.909 186.446 355.375 186.446C357.091 186.446 358.595 186.886 359.885 187.766C361.176 188.646 362.078 189.863 362.591 191.418H359.049C358.697 190.685 358.199 190.135 357.553 189.768C356.923 189.401 356.189 189.218 355.353 189.218C354.459 189.218 353.659 189.431 352.955 189.856C352.266 190.267 351.723 190.853 351.327 191.616C350.946 192.379 350.755 193.273 350.755 194.3C350.755 195.312 350.946 196.207 351.327 196.984C351.723 197.747 352.266 198.341 352.955 198.766C353.659 199.177 354.459 199.382 355.353 199.382C356.189 199.382 356.923 199.199 357.553 198.832C358.199 198.451 358.697 197.893 359.049 197.16H362.591C362.078 198.729 361.176 199.954 359.885 200.834C358.609 201.699 357.106 202.132 355.375 202.132C353.909 202.132 352.581 201.802 351.393 201.142C350.22 200.467 349.289 199.536 348.599 198.348C347.925 197.16 347.587 195.811 347.587 194.3ZM368.302 199.558H373.362V202H365.222V186.644H368.302V199.558ZM388.058 186.644V202H384.978V195.466H378.4V202H375.32V186.644H378.4V192.958H384.978V186.644H388.058ZM66.6369 221.396C66.6369 222.217 66.4389 222.987 66.0429 223.706C65.6616 224.425 65.0529 225.004 64.2169 225.444C63.3956 225.884 62.3542 226.104 61.0929 226.104H58.5189V232H55.4389V216.644H61.0929C62.2809 216.644 63.2929 216.849 64.1289 217.26C64.9649 217.671 65.5882 218.235 65.9989 218.954C66.4242 219.673 66.6369 220.487 66.6369 221.396ZM60.9609 223.618C61.8116 223.618 62.4422 223.427 62.8529 223.046C63.2636 222.65 63.4689 222.1 63.4689 221.396C63.4689 219.9 62.6329 219.152 60.9609 219.152H58.5189V223.618H60.9609ZM68.0317 225.862C68.0317 224.63 68.2737 223.537 68.7577 222.584C69.2563 221.631 69.9237 220.897 70.7597 220.384C71.6103 219.871 72.5563 219.614 73.5977 219.614C74.507 219.614 75.299 219.797 75.9737 220.164C76.663 220.531 77.213 220.993 77.6237 221.55V219.812H80.7257V232H77.6237V230.218C77.2277 230.79 76.6777 231.267 75.9737 231.648C75.2843 232.015 74.485 232.198 73.5757 232.198C72.549 232.198 71.6103 231.934 70.7597 231.406C69.9237 230.878 69.2563 230.137 68.7577 229.184C68.2737 228.216 68.0317 227.109 68.0317 225.862ZM77.6237 225.906C77.6237 225.158 77.477 224.52 77.1837 223.992C76.8903 223.449 76.4943 223.039 75.9957 222.76C75.497 222.467 74.9617 222.32 74.3897 222.32C73.8177 222.32 73.2897 222.459 72.8057 222.738C72.3217 223.017 71.9257 223.427 71.6177 223.97C71.3243 224.498 71.1777 225.129 71.1777 225.862C71.1777 226.595 71.3243 227.241 71.6177 227.798C71.9257 228.341 72.3217 228.759 72.8057 229.052C73.3043 229.345 73.8323 229.492 74.3897 229.492C74.9617 229.492 75.497 229.353 75.9957 229.074C76.4943 228.781 76.8903 228.37 77.1837 227.842C77.477 227.299 77.6237 226.654 77.6237 225.906ZM87.3198 222.342V228.238C87.3198 228.649 87.4152 228.949 87.6058 229.14C87.8112 229.316 88.1485 229.404 88.6178 229.404H90.0478V232H88.1118C85.5158 232 84.2178 230.739 84.2178 228.216V222.342H82.7658V219.812H84.2178V216.798H87.3198V219.812H90.0478V222.342H87.3198ZM99.1271 219.636C100.051 219.636 100.872 219.841 101.591 220.252C102.31 220.648 102.867 221.242 103.263 222.034C103.674 222.811 103.879 223.75 103.879 224.85V232H100.799V225.268C100.799 224.3 100.557 223.559 100.073 223.046C99.5891 222.518 98.9291 222.254 98.0931 222.254C97.2425 222.254 96.5678 222.518 96.0691 223.046C95.5851 223.559 95.3431 224.3 95.3431 225.268V232H92.2631V215.72H95.3431V221.33C95.7391 220.802 96.2671 220.391 96.9271 220.098C97.5871 219.79 98.3205 219.636 99.1271 219.636ZM123.704 219.812L120.14 232H116.818L114.596 223.486L112.374 232H109.03L105.444 219.812H108.568L110.724 229.096L113.056 219.812H116.312L118.6 229.074L120.756 219.812H123.704ZM124.579 225.862C124.579 224.63 124.821 223.537 125.305 222.584C125.803 221.631 126.471 220.897 127.307 220.384C128.157 219.871 129.103 219.614 130.145 219.614C131.054 219.614 131.846 219.797 132.521 220.164C133.21 220.531 133.76 220.993 134.171 221.55V219.812H137.273V232H134.171V230.218C133.775 230.79 133.225 231.267 132.521 231.648C131.831 232.015 131.032 232.198 130.123 232.198C129.096 232.198 128.157 231.934 127.307 231.406C126.471 230.878 125.803 230.137 125.305 229.184C124.821 228.216 124.579 227.109 124.579 225.862ZM134.171 225.906C134.171 225.158 134.024 224.52 133.731 223.992C133.437 223.449 133.041 223.039 132.543 222.76C132.044 222.467 131.509 222.32 130.937 222.32C130.365 222.32 129.837 222.459 129.353 222.738C128.869 223.017 128.473 223.427 128.165 223.97C127.871 224.498 127.725 225.129 127.725 225.862C127.725 226.595 127.871 227.241 128.165 227.798C128.473 228.341 128.869 228.759 129.353 229.052C129.851 229.345 130.379 229.492 130.937 229.492C131.509 229.492 132.044 229.353 132.543 229.074C133.041 228.781 133.437 228.37 133.731 227.842C134.024 227.299 134.171 226.654 134.171 225.906ZM151.941 219.812L144.395 237.764H141.117L143.757 231.692L138.873 219.812H142.327L145.473 228.326L148.663 219.812H151.941ZM162.429 222.342V228.238C162.429 228.649 162.525 228.949 162.715 229.14C162.921 229.316 163.258 229.404 163.727 229.404H165.157V232H163.221C160.625 232 159.327 230.739 159.327 228.216V222.342H157.875V219.812H159.327V216.798H162.429V219.812H165.157V222.342H162.429ZM178.702 225.642C178.702 226.082 178.673 226.478 178.614 226.83H169.704C169.778 227.71 170.086 228.399 170.628 228.898C171.171 229.397 171.838 229.646 172.63 229.646C173.774 229.646 174.588 229.155 175.072 228.172H178.394C178.042 229.345 177.368 230.313 176.37 231.076C175.373 231.824 174.148 232.198 172.696 232.198C171.523 232.198 170.467 231.941 169.528 231.428C168.604 230.9 167.878 230.159 167.35 229.206C166.837 228.253 166.58 227.153 166.58 225.906C166.58 224.645 166.837 223.537 167.35 222.584C167.864 221.631 168.582 220.897 169.506 220.384C170.43 219.871 171.494 219.614 172.696 219.614C173.855 219.614 174.889 219.863 175.798 220.362C176.722 220.861 177.434 221.572 177.932 222.496C178.446 223.405 178.702 224.454 178.702 225.642ZM175.512 224.762C175.498 223.97 175.212 223.339 174.654 222.87C174.097 222.386 173.415 222.144 172.608 222.144C171.846 222.144 171.2 222.379 170.672 222.848C170.159 223.303 169.844 223.941 169.726 224.762H175.512ZM180.159 225.862C180.159 224.63 180.401 223.537 180.885 222.584C181.383 221.631 182.051 220.897 182.887 220.384C183.737 219.871 184.683 219.614 185.725 219.614C186.634 219.614 187.426 219.797 188.101 220.164C188.79 220.531 189.34 220.993 189.751 221.55V219.812H192.853V232H189.751V230.218C189.355 230.79 188.805 231.267 188.101 231.648C187.411 232.015 186.612 232.198 185.703 232.198C184.676 232.198 183.737 231.934 182.887 231.406C182.051 230.878 181.383 230.137 180.885 229.184C180.401 228.216 180.159 227.109 180.159 225.862ZM189.751 225.906C189.751 225.158 189.604 224.52 189.311 223.992C189.017 223.449 188.621 223.039 188.123 222.76C187.624 222.467 187.089 222.32 186.517 222.32C185.945 222.32 185.417 222.459 184.933 222.738C184.449 223.017 184.053 223.427 183.745 223.97C183.451 224.498 183.305 225.129 183.305 225.862C183.305 226.595 183.451 227.241 183.745 227.798C184.053 228.341 184.449 228.759 184.933 229.052C185.431 229.345 185.959 229.492 186.517 229.492C187.089 229.492 187.624 229.353 188.123 229.074C188.621 228.781 189.017 228.37 189.311 227.842C189.604 227.299 189.751 226.654 189.751 225.906ZM210.997 219.636C212.493 219.636 213.695 220.098 214.605 221.022C215.529 221.931 215.991 223.207 215.991 224.85V232H212.911V225.268C212.911 224.315 212.669 223.589 212.185 223.09C211.701 222.577 211.041 222.32 210.205 222.32C209.369 222.32 208.701 222.577 208.203 223.09C207.719 223.589 207.477 224.315 207.477 225.268V232H204.397V225.268C204.397 224.315 204.155 223.589 203.671 223.09C203.187 222.577 202.527 222.32 201.691 222.32C200.84 222.32 200.165 222.577 199.667 223.09C199.183 223.589 198.941 224.315 198.941 225.268V232H195.861V219.812H198.941V221.286C199.337 220.773 199.843 220.369 200.459 220.076C201.089 219.783 201.779 219.636 202.527 219.636C203.48 219.636 204.331 219.841 205.079 220.252C205.827 220.648 206.406 221.22 206.817 221.968C207.213 221.264 207.785 220.699 208.533 220.274C209.295 219.849 210.117 219.636 210.997 219.636ZM223.364 225.862C223.364 224.63 223.606 223.537 224.09 222.584C224.588 221.631 225.256 220.897 226.092 220.384C226.942 219.871 227.888 219.614 228.93 219.614C229.839 219.614 230.631 219.797 231.306 220.164C231.995 220.531 232.545 220.993 232.956 221.55V219.812H236.058V232H232.956V230.218C232.56 230.79 232.01 231.267 231.306 231.648C230.616 232.015 229.817 232.198 228.908 232.198C227.881 232.198 226.942 231.934 226.092 231.406C225.256 230.878 224.588 230.137 224.09 229.184C223.606 228.216 223.364 227.109 223.364 225.862ZM232.956 225.906C232.956 225.158 232.809 224.52 232.516 223.992C232.222 223.449 231.826 223.039 231.328 222.76C230.829 222.467 230.294 222.32 229.722 222.32C229.15 222.32 228.622 222.459 228.138 222.738C227.654 223.017 227.258 223.427 226.95 223.97C226.656 224.498 226.51 225.129 226.51 225.862C226.51 226.595 226.656 227.241 226.95 227.798C227.258 228.341 227.654 228.759 228.138 229.052C228.636 229.345 229.164 229.492 229.722 229.492C230.294 229.492 230.829 229.353 231.328 229.074C231.826 228.781 232.222 228.37 232.516 227.842C232.809 227.299 232.956 226.654 232.956 225.906ZM301.378 221.704C301.774 221.059 302.288 220.553 302.918 220.186C303.564 219.819 304.297 219.636 305.118 219.636V222.87H304.304C303.336 222.87 302.603 223.097 302.104 223.552C301.62 224.007 301.378 224.799 301.378 225.928V232H298.298V219.812H301.378V221.704ZM318.523 225.642C318.523 226.082 318.493 226.478 318.435 226.83H309.525C309.598 227.71 309.906 228.399 310.449 228.898C310.991 229.397 311.659 229.646 312.451 229.646C313.595 229.646 314.409 229.155 314.893 228.172H318.215C317.863 229.345 317.188 230.313 316.191 231.076C315.193 231.824 313.969 232.198 312.517 232.198C311.343 232.198 310.287 231.941 309.349 231.428C308.425 230.9 307.699 230.159 307.171 229.206C306.657 228.253 306.401 227.153 306.401 225.906C306.401 224.645 306.657 223.537 307.171 222.584C307.684 221.631 308.403 220.897 309.327 220.384C310.251 219.871 311.314 219.614 312.517 219.614C313.675 219.614 314.709 219.863 315.619 220.362C316.543 220.861 317.254 221.572 317.753 222.496C318.266 223.405 318.523 224.454 318.523 225.642ZM315.333 224.762C315.318 223.97 315.032 223.339 314.475 222.87C313.917 222.386 313.235 222.144 312.429 222.144C311.666 222.144 311.021 222.379 310.493 222.848C309.979 223.303 309.664 223.941 309.547 224.762H315.333ZM319.979 225.862C319.979 224.63 320.221 223.537 320.705 222.584C321.204 221.631 321.878 220.897 322.729 220.384C323.58 219.871 324.526 219.614 325.567 219.614C326.359 219.614 327.114 219.79 327.833 220.142C328.552 220.479 329.124 220.934 329.549 221.506V215.72H332.673V232H329.549V230.196C329.168 230.797 328.632 231.281 327.943 231.648C327.254 232.015 326.454 232.198 325.545 232.198C324.518 232.198 323.58 231.934 322.729 231.406C321.878 230.878 321.204 230.137 320.705 229.184C320.221 228.216 319.979 227.109 319.979 225.862ZM329.571 225.906C329.571 225.158 329.424 224.52 329.131 223.992C328.838 223.449 328.442 223.039 327.943 222.76C327.444 222.467 326.909 222.32 326.337 222.32C325.765 222.32 325.237 222.459 324.753 222.738C324.269 223.017 323.873 223.427 323.565 223.97C323.272 224.498 323.125 225.129 323.125 225.862C323.125 226.595 323.272 227.241 323.565 227.798C323.873 228.341 324.269 228.759 324.753 229.052C325.252 229.345 325.78 229.492 326.337 229.492C326.909 229.492 327.444 229.353 327.943 229.074C328.442 228.781 328.838 228.37 329.131 227.842C329.424 227.299 329.571 226.654 329.571 225.906ZM347.187 219.812V232H344.085V230.46C343.689 230.988 343.168 231.406 342.523 231.714C341.892 232.007 341.203 232.154 340.455 232.154C339.502 232.154 338.658 231.956 337.925 231.56C337.192 231.149 336.612 230.555 336.187 229.778C335.776 228.986 335.571 228.047 335.571 226.962V219.812H338.651V226.522C338.651 227.49 338.893 228.238 339.377 228.766C339.861 229.279 340.521 229.536 341.357 229.536C342.208 229.536 342.875 229.279 343.359 228.766C343.843 228.238 344.085 227.49 344.085 226.522V219.812H347.187ZM349.434 225.906C349.434 224.645 349.691 223.545 350.204 222.606C350.717 221.653 351.429 220.919 352.338 220.406C353.247 219.878 354.289 219.614 355.462 219.614C356.973 219.614 358.219 219.995 359.202 220.758C360.199 221.506 360.867 222.562 361.204 223.926H357.882C357.706 223.398 357.405 222.987 356.98 222.694C356.569 222.386 356.056 222.232 355.44 222.232C354.56 222.232 353.863 222.555 353.35 223.2C352.837 223.831 352.58 224.733 352.58 225.906C352.58 227.065 352.837 227.967 353.35 228.612C353.863 229.243 354.56 229.558 355.44 229.558C356.687 229.558 357.501 229.001 357.882 227.886H361.204C360.867 229.206 360.199 230.255 359.202 231.032C358.205 231.809 356.958 232.198 355.462 232.198C354.289 232.198 353.247 231.941 352.338 231.428C351.429 230.9 350.717 230.167 350.204 229.228C349.691 228.275 349.434 227.167 349.434 225.906ZM367.046 222.342V228.238C367.046 228.649 367.142 228.949 367.332 229.14C367.538 229.316 367.875 229.404 368.344 229.404H369.774V232H367.838C365.242 232 363.944 230.739 363.944 228.216V222.342H362.492V219.812H363.944V216.798H367.046V219.812H369.774V222.342H367.046ZM373.552 218.36C373.009 218.36 372.554 218.191 372.188 217.854C371.836 217.502 371.66 217.069 371.66 216.556C371.66 216.043 371.836 215.617 372.188 215.28C372.554 214.928 373.009 214.752 373.552 214.752C374.094 214.752 374.542 214.928 374.894 215.28C375.26 215.617 375.444 216.043 375.444 216.556C375.444 217.069 375.26 217.502 374.894 217.854C374.542 218.191 374.094 218.36 373.552 218.36ZM375.07 219.812V232H371.99V219.812H375.07ZM383.525 232.198C382.351 232.198 381.295 231.941 380.357 231.428C379.418 230.9 378.677 230.159 378.135 229.206C377.607 228.253 377.343 227.153 377.343 225.906C377.343 224.659 377.614 223.559 378.157 222.606C378.714 221.653 379.469 220.919 380.423 220.406C381.376 219.878 382.439 219.614 383.613 219.614C384.786 219.614 385.849 219.878 386.803 220.406C387.756 220.919 388.504 221.653 389.047 222.606C389.604 223.559 389.883 224.659 389.883 225.906C389.883 227.153 389.597 228.253 389.025 229.206C388.467 230.159 387.705 230.9 386.737 231.428C385.783 231.941 384.713 232.198 383.525 232.198ZM383.525 229.514C384.082 229.514 384.603 229.382 385.087 229.118C385.585 228.839 385.981 228.429 386.275 227.886C386.568 227.343 386.715 226.683 386.715 225.906C386.715 224.747 386.407 223.86 385.791 223.244C385.189 222.613 384.449 222.298 383.569 222.298C382.689 222.298 381.948 222.613 381.347 223.244C380.76 223.86 380.467 224.747 380.467 225.906C380.467 227.065 380.753 227.959 381.325 228.59C381.911 229.206 382.645 229.514 383.525 229.514ZM398.896 219.636C400.348 219.636 401.521 220.098 402.416 221.022C403.311 221.931 403.758 223.207 403.758 224.85V232H400.678V225.268C400.678 224.3 400.436 223.559 399.952 223.046C399.468 222.518 398.808 222.254 397.972 222.254C397.121 222.254 396.447 222.518 395.948 223.046C395.464 223.559 395.222 224.3 395.222 225.268V232H392.142V219.812H395.222V221.33C395.633 220.802 396.153 220.391 396.784 220.098C397.429 219.79 398.133 219.636 398.896 219.636ZM413.491 218.36C412.948 218.36 412.494 218.191 412.127 217.854C411.775 217.502 411.599 217.069 411.599 216.556C411.599 216.043 411.775 215.617 412.127 215.28C412.494 214.928 412.948 214.752 413.491 214.752C414.034 214.752 414.481 214.928 414.833 215.28C415.2 215.617 415.383 216.043 415.383 216.556C415.383 217.069 415.2 217.502 414.833 217.854C414.481 218.191 414.034 218.36 413.491 218.36ZM415.009 219.812V232H411.929V219.812H415.009ZM424.806 219.636C426.258 219.636 427.432 220.098 428.326 221.022C429.221 221.931 429.668 223.207 429.668 224.85V232H426.588V225.268C426.588 224.3 426.346 223.559 425.862 223.046C425.378 222.518 424.718 222.254 423.882 222.254C423.032 222.254 422.357 222.518 421.858 223.046C421.374 223.559 421.132 224.3 421.132 225.268V232H418.052V219.812H421.132V221.33C421.543 220.802 422.064 220.391 422.694 220.098C423.34 219.79 424.044 219.636 424.806 219.636ZM109.297 251.594C109.693 251.007 110.236 250.531 110.925 250.164C111.629 249.797 112.429 249.614 113.323 249.614C114.365 249.614 115.303 249.871 116.139 250.384C116.99 250.897 117.657 251.631 118.141 252.584C118.64 253.523 118.889 254.615 118.889 255.862C118.889 257.109 118.64 258.216 118.141 259.184C117.657 260.137 116.99 260.878 116.139 261.406C115.303 261.934 114.365 262.198 113.323 262.198C112.414 262.198 111.615 262.022 110.925 261.67C110.251 261.303 109.708 260.834 109.297 260.262V262H106.217V245.72H109.297V251.594ZM115.743 255.862C115.743 255.129 115.589 254.498 115.281 253.97C114.988 253.427 114.592 253.017 114.093 252.738C113.609 252.459 113.081 252.32 112.509 252.32C111.952 252.32 111.424 252.467 110.925 252.76C110.441 253.039 110.045 253.449 109.737 253.992C109.444 254.535 109.297 255.173 109.297 255.906C109.297 256.639 109.444 257.277 109.737 257.82C110.045 258.363 110.441 258.781 110.925 259.074C111.424 259.353 111.952 259.492 112.509 259.492C113.081 259.492 113.609 259.345 114.093 259.052C114.592 258.759 114.988 258.341 115.281 257.798C115.589 257.255 115.743 256.61 115.743 255.862ZM132.457 255.642C132.457 256.082 132.428 256.478 132.369 256.83H123.459C123.533 257.71 123.841 258.399 124.383 258.898C124.926 259.397 125.593 259.646 126.385 259.646C127.529 259.646 128.343 259.155 128.827 258.172H132.149C131.797 259.345 131.123 260.313 130.125 261.076C129.128 261.824 127.903 262.198 126.451 262.198C125.278 262.198 124.222 261.941 123.283 261.428C122.359 260.9 121.633 260.159 121.105 259.206C120.592 258.253 120.335 257.153 120.335 255.906C120.335 254.645 120.592 253.537 121.105 252.584C121.619 251.631 122.337 250.897 123.261 250.384C124.185 249.871 125.249 249.614 126.451 249.614C127.61 249.614 128.644 249.863 129.553 250.362C130.477 250.861 131.189 251.572 131.687 252.496C132.201 253.405 132.457 254.454 132.457 255.642ZM129.267 254.762C129.253 253.97 128.967 253.339 128.409 252.87C127.852 252.386 127.17 252.144 126.363 252.144C125.601 252.144 124.955 252.379 124.427 252.848C123.914 253.303 123.599 253.941 123.481 254.762H129.267ZM133.913 255.862C133.913 254.63 134.155 253.537 134.639 252.584C135.138 251.631 135.813 250.897 136.664 250.384C137.514 249.871 138.46 249.614 139.502 249.614C140.294 249.614 141.049 249.79 141.768 250.142C142.486 250.479 143.058 250.934 143.484 251.506V245.72H146.608V262H143.484V260.196C143.102 260.797 142.567 261.281 141.878 261.648C141.188 262.015 140.389 262.198 139.48 262.198C138.453 262.198 137.514 261.934 136.664 261.406C135.813 260.878 135.138 260.137 134.639 259.184C134.155 258.216 133.913 257.109 133.913 255.862ZM143.506 255.906C143.506 255.158 143.359 254.52 143.066 253.992C142.772 253.449 142.376 253.039 141.878 252.76C141.379 252.467 140.844 252.32 140.272 252.32C139.7 252.32 139.172 252.459 138.688 252.738C138.204 253.017 137.808 253.427 137.5 253.97C137.206 254.498 137.06 255.129 137.06 255.862C137.06 256.595 137.206 257.241 137.5 257.798C137.808 258.341 138.204 258.759 138.688 259.052C139.186 259.345 139.714 259.492 140.272 259.492C140.844 259.492 141.379 259.353 141.878 259.074C142.376 258.781 142.772 258.37 143.066 257.842C143.359 257.299 143.506 256.654 143.506 255.906ZM154.066 255.862C154.066 254.63 154.308 253.537 154.792 252.584C155.291 251.631 155.965 250.897 156.816 250.384C157.667 249.871 158.613 249.614 159.654 249.614C160.446 249.614 161.201 249.79 161.92 250.142C162.639 250.479 163.211 250.934 163.636 251.506V245.72H166.76V262H163.636V260.196C163.255 260.797 162.719 261.281 162.03 261.648C161.341 262.015 160.541 262.198 159.632 262.198C158.605 262.198 157.667 261.934 156.816 261.406C155.965 260.878 155.291 260.137 154.792 259.184C154.308 258.216 154.066 257.109 154.066 255.862ZM163.658 255.906C163.658 255.158 163.511 254.52 163.218 253.992C162.925 253.449 162.529 253.039 162.03 252.76C161.531 252.467 160.996 252.32 160.424 252.32C159.852 252.32 159.324 252.459 158.84 252.738C158.356 253.017 157.96 253.427 157.652 253.97C157.359 254.498 157.212 255.129 157.212 255.862C157.212 256.595 157.359 257.241 157.652 257.798C157.96 258.341 158.356 258.759 158.84 259.052C159.339 259.345 159.867 259.492 160.424 259.492C160.996 259.492 161.531 259.353 162.03 259.074C162.529 258.781 162.925 258.37 163.218 257.842C163.511 257.299 163.658 256.654 163.658 255.906ZM168.976 255.862C168.976 254.63 169.218 253.537 169.702 252.584C170.201 251.631 170.868 250.897 171.704 250.384C172.555 249.871 173.501 249.614 174.542 249.614C175.451 249.614 176.243 249.797 176.918 250.164C177.607 250.531 178.157 250.993 178.568 251.55V249.812H181.67V262H178.568V260.218C178.172 260.79 177.622 261.267 176.918 261.648C176.229 262.015 175.429 262.198 174.52 262.198C173.493 262.198 172.555 261.934 171.704 261.406C170.868 260.878 170.201 260.137 169.702 259.184C169.218 258.216 168.976 257.109 168.976 255.862ZM178.568 255.906C178.568 255.158 178.421 254.52 178.128 253.992C177.835 253.449 177.439 253.039 176.94 252.76C176.441 252.467 175.906 252.32 175.334 252.32C174.762 252.32 174.234 252.459 173.75 252.738C173.266 253.017 172.87 253.427 172.562 253.97C172.269 254.498 172.122 255.129 172.122 255.862C172.122 256.595 172.269 257.241 172.562 257.798C172.87 258.341 173.266 258.759 173.75 259.052C174.249 259.345 174.777 259.492 175.334 259.492C175.906 259.492 176.441 259.353 176.94 259.074C177.439 258.781 177.835 258.37 178.128 257.842C178.421 257.299 178.568 256.654 178.568 255.906ZM196.338 249.812L188.792 267.764H185.514L188.154 261.692L183.27 249.812H186.724L189.87 258.326L193.06 249.812H196.338ZM202.662 262.198C201.665 262.198 200.77 262.022 199.978 261.67C199.186 261.303 198.556 260.812 198.086 260.196C197.632 259.58 197.382 258.898 197.338 258.15H200.44C200.499 258.619 200.726 259.008 201.122 259.316C201.533 259.624 202.039 259.778 202.64 259.778C203.227 259.778 203.682 259.661 204.004 259.426C204.342 259.191 204.51 258.891 204.51 258.524C204.51 258.128 204.305 257.835 203.894 257.644C203.498 257.439 202.86 257.219 201.98 256.984C201.071 256.764 200.323 256.537 199.736 256.302C199.164 256.067 198.666 255.708 198.24 255.224C197.83 254.74 197.624 254.087 197.624 253.266C197.624 252.591 197.815 251.975 198.196 251.418C198.592 250.861 199.15 250.421 199.868 250.098C200.602 249.775 201.46 249.614 202.442 249.614C203.894 249.614 205.053 249.981 205.918 250.714C206.784 251.433 207.26 252.408 207.348 253.64H204.4C204.356 253.156 204.151 252.775 203.784 252.496C203.432 252.203 202.956 252.056 202.354 252.056C201.797 252.056 201.364 252.159 201.056 252.364C200.763 252.569 200.616 252.855 200.616 253.222C200.616 253.633 200.822 253.948 201.232 254.168C201.643 254.373 202.281 254.586 203.146 254.806C204.026 255.026 204.752 255.253 205.324 255.488C205.896 255.723 206.388 256.089 206.798 256.588C207.224 257.072 207.444 257.717 207.458 258.524C207.458 259.228 207.26 259.859 206.864 260.416C206.483 260.973 205.926 261.413 205.192 261.736C204.474 262.044 203.63 262.198 202.662 262.198ZM232.125 249.812L228.561 262H225.239L223.017 253.486L220.795 262H217.451L213.865 249.812H216.989L219.145 259.096L221.477 249.812H224.733L227.021 259.074L229.177 249.812H232.125ZM232.999 255.862C232.999 254.63 233.241 253.537 233.725 252.584C234.224 251.631 234.891 250.897 235.727 250.384C236.578 249.871 237.524 249.614 238.565 249.614C239.475 249.614 240.267 249.797 240.941 250.164C241.631 250.531 242.181 250.993 242.591 251.55V249.812H245.693V262H242.591V260.218C242.195 260.79 241.645 261.267 240.941 261.648C240.252 262.015 239.453 262.198 238.543 262.198C237.517 262.198 236.578 261.934 235.727 261.406C234.891 260.878 234.224 260.137 233.725 259.184C233.241 258.216 232.999 257.109 232.999 255.862ZM242.591 255.906C242.591 255.158 242.445 254.52 242.151 253.992C241.858 253.449 241.462 253.039 240.963 252.76C240.465 252.467 239.929 252.32 239.357 252.32C238.785 252.32 238.257 252.459 237.773 252.738C237.289 253.017 236.893 253.427 236.585 253.97C236.292 254.498 236.145 255.129 236.145 255.862C236.145 256.595 236.292 257.241 236.585 257.798C236.893 258.341 237.289 258.759 237.773 259.052C238.272 259.345 238.8 259.492 239.357 259.492C239.929 259.492 240.465 259.353 240.963 259.074C241.462 258.781 241.858 258.37 242.151 257.842C242.445 257.299 242.591 256.654 242.591 255.906ZM253.366 262.198C252.368 262.198 251.474 262.022 250.682 261.67C249.89 261.303 249.259 260.812 248.79 260.196C248.335 259.58 248.086 258.898 248.042 258.15H251.144C251.202 258.619 251.43 259.008 251.826 259.316C252.236 259.624 252.742 259.778 253.344 259.778C253.93 259.778 254.385 259.661 254.708 259.426C255.045 259.191 255.214 258.891 255.214 258.524C255.214 258.128 255.008 257.835 254.598 257.644C254.202 257.439 253.564 257.219 252.684 256.984C251.774 256.764 251.026 256.537 250.44 256.302C249.868 256.067 249.369 255.708 248.944 255.224C248.533 254.74 248.328 254.087 248.328 253.266C248.328 252.591 248.518 251.975 248.9 251.418C249.296 250.861 249.853 250.421 250.572 250.098C251.305 249.775 252.163 249.614 253.146 249.614C254.598 249.614 255.756 249.981 256.622 250.714C257.487 251.433 257.964 252.408 258.052 253.64H255.104C255.06 253.156 254.854 252.775 254.488 252.496C254.136 252.203 253.659 252.056 253.058 252.056C252.5 252.056 252.068 252.159 251.76 252.364C251.466 252.569 251.32 252.855 251.32 253.222C251.32 253.633 251.525 253.948 251.936 254.168C252.346 254.373 252.984 254.586 253.85 254.806C254.73 255.026 255.456 255.253 256.028 255.488C256.6 255.723 257.091 256.089 257.502 256.588C257.927 257.072 258.147 257.717 258.162 258.524C258.162 259.228 257.964 259.859 257.568 260.416C257.186 260.973 256.629 261.413 255.896 261.736C255.177 262.044 254.334 262.198 253.366 262.198ZM271.344 262.198C270.171 262.198 269.115 261.941 268.176 261.428C267.237 260.9 266.497 260.159 265.954 259.206C265.426 258.253 265.162 257.153 265.162 255.906C265.162 254.659 265.433 253.559 265.976 252.606C266.533 251.653 267.289 250.919 268.242 250.406C269.195 249.878 270.259 249.614 271.432 249.614C272.605 249.614 273.669 249.878 274.622 250.406C275.575 250.919 276.323 251.653 276.866 252.606C277.423 253.559 277.702 254.659 277.702 255.906C277.702 257.153 277.416 258.253 276.844 259.206C276.287 260.159 275.524 260.9 274.556 261.428C273.603 261.941 272.532 262.198 271.344 262.198ZM271.344 259.514C271.901 259.514 272.422 259.382 272.906 259.118C273.405 258.839 273.801 258.429 274.094 257.886C274.387 257.343 274.534 256.683 274.534 255.906C274.534 254.747 274.226 253.86 273.61 253.244C273.009 252.613 272.268 252.298 271.388 252.298C270.508 252.298 269.767 252.613 269.166 253.244C268.579 253.86 268.286 254.747 268.286 255.906C268.286 257.065 268.572 257.959 269.144 258.59C269.731 259.206 270.464 259.514 271.344 259.514ZM283.041 251.594C283.437 251.007 283.98 250.531 284.669 250.164C285.373 249.797 286.173 249.614 287.067 249.614C288.109 249.614 289.047 249.871 289.883 250.384C290.734 250.897 291.401 251.631 291.885 252.584C292.384 253.523 292.633 254.615 292.633 255.862C292.633 257.109 292.384 258.216 291.885 259.184C291.401 260.137 290.734 260.878 289.883 261.406C289.047 261.934 288.109 262.198 287.067 262.198C286.158 262.198 285.359 262.022 284.669 261.67C283.995 261.303 283.452 260.834 283.041 260.262V262H279.961V245.72H283.041V251.594ZM289.487 255.862C289.487 255.129 289.333 254.498 289.025 253.97C288.732 253.427 288.336 253.017 287.837 252.738C287.353 252.459 286.825 252.32 286.253 252.32C285.696 252.32 285.168 252.467 284.669 252.76C284.185 253.039 283.789 253.449 283.481 253.992C283.188 254.535 283.041 255.173 283.041 255.906C283.041 256.639 283.188 257.277 283.481 257.82C283.789 258.363 284.185 258.781 284.669 259.074C285.168 259.353 285.696 259.492 286.253 259.492C286.825 259.492 287.353 259.345 287.837 259.052C288.336 258.759 288.732 258.341 289.025 257.798C289.333 257.255 289.487 256.61 289.487 255.862ZM299.536 262.198C298.538 262.198 297.644 262.022 296.852 261.67C296.06 261.303 295.429 260.812 294.96 260.196C294.505 259.58 294.256 258.898 294.212 258.15H297.314C297.372 258.619 297.6 259.008 297.996 259.316C298.406 259.624 298.912 259.778 299.514 259.778C300.1 259.778 300.555 259.661 300.878 259.426C301.215 259.191 301.384 258.891 301.384 258.524C301.384 258.128 301.178 257.835 300.768 257.644C300.372 257.439 299.734 257.219 298.854 256.984C297.944 256.764 297.196 256.537 296.61 256.302C296.038 256.067 295.539 255.708 295.114 255.224C294.703 254.74 294.498 254.087 294.498 253.266C294.498 252.591 294.688 251.975 295.07 251.418C295.466 250.861 296.023 250.421 296.742 250.098C297.475 249.775 298.333 249.614 299.316 249.614C300.768 249.614 301.926 249.981 302.792 250.714C303.657 251.433 304.134 252.408 304.222 253.64H301.274C301.23 253.156 301.024 252.775 300.658 252.496C300.306 252.203 299.829 252.056 299.228 252.056C298.67 252.056 298.238 252.159 297.93 252.364C297.636 252.569 297.49 252.855 297.49 253.222C297.49 253.633 297.695 253.948 298.106 254.168C298.516 254.373 299.154 254.586 300.02 254.806C300.9 255.026 301.626 255.253 302.198 255.488C302.77 255.723 303.261 256.089 303.672 256.588C304.097 257.072 304.317 257.717 304.332 258.524C304.332 259.228 304.134 259.859 303.738 260.416C303.356 260.973 302.799 261.413 302.066 261.736C301.347 262.044 300.504 262.198 299.536 262.198ZM318.19 255.642C318.19 256.082 318.16 256.478 318.102 256.83H309.192C309.265 257.71 309.573 258.399 310.116 258.898C310.658 259.397 311.326 259.646 312.118 259.646C313.262 259.646 314.076 259.155 314.56 258.172H317.882C317.53 259.345 316.855 260.313 315.858 261.076C314.86 261.824 313.636 262.198 312.184 262.198C311.01 262.198 309.954 261.941 309.016 261.428C308.092 260.9 307.366 260.159 306.838 259.206C306.324 258.253 306.068 257.153 306.068 255.906C306.068 254.645 306.324 253.537 306.838 252.584C307.351 251.631 308.07 250.897 308.994 250.384C309.918 249.871 310.981 249.614 312.184 249.614C313.342 249.614 314.376 249.863 315.286 250.362C316.21 250.861 316.921 251.572 317.42 252.496C317.933 253.405 318.19 254.454 318.19 255.642ZM315 254.762C314.985 253.97 314.699 253.339 314.142 252.87C313.584 252.386 312.902 252.144 312.096 252.144C311.333 252.144 310.688 252.379 310.16 252.848C309.646 253.303 309.331 253.941 309.214 254.762H315ZM323.518 251.704C323.914 251.059 324.427 250.553 325.058 250.186C325.703 249.819 326.437 249.636 327.258 249.636V252.87H326.444C325.476 252.87 324.743 253.097 324.244 253.552C323.76 254.007 323.518 254.799 323.518 255.928V262H320.438V249.812H323.518V251.704ZM334.414 259.162L337.494 249.812H340.772L336.262 262H332.522L328.034 249.812H331.334L334.414 259.162ZM353.832 255.642C353.832 256.082 353.803 256.478 353.744 256.83H344.834C344.908 257.71 345.216 258.399 345.758 258.898C346.301 259.397 346.968 259.646 347.76 259.646C348.904 259.646 349.718 259.155 350.202 258.172H353.524C353.172 259.345 352.498 260.313 351.5 261.076C350.503 261.824 349.278 262.198 347.826 262.198C346.653 262.198 345.597 261.941 344.658 261.428C343.734 260.9 343.008 260.159 342.48 259.206C341.967 258.253 341.71 257.153 341.71 255.906C341.71 254.645 341.967 253.537 342.48 252.584C342.994 251.631 343.712 250.897 344.636 250.384C345.56 249.871 346.624 249.614 347.826 249.614C348.985 249.614 350.019 249.863 350.928 250.362C351.852 250.861 352.564 251.572 353.062 252.496C353.576 253.405 353.832 254.454 353.832 255.642ZM350.642 254.762C350.628 253.97 350.342 253.339 349.784 252.87C349.227 252.386 348.545 252.144 347.738 252.144C346.976 252.144 346.33 252.379 345.802 252.848C345.289 253.303 344.974 253.941 344.856 254.762H350.642ZM355.288 255.862C355.288 254.63 355.53 253.537 356.014 252.584C356.513 251.631 357.188 250.897 358.039 250.384C358.889 249.871 359.835 249.614 360.877 249.614C361.669 249.614 362.424 249.79 363.143 250.142C363.861 250.479 364.433 250.934 364.859 251.506V245.72H367.983V262H364.859V260.196C364.477 260.797 363.942 261.281 363.253 261.648C362.563 262.015 361.764 262.198 360.855 262.198C359.828 262.198 358.889 261.934 358.039 261.406C357.188 260.878 356.513 260.137 356.014 259.184C355.53 258.216 355.288 257.109 355.288 255.862ZM364.881 255.906C364.881 255.158 364.734 254.52 364.441 253.992C364.147 253.449 363.751 253.039 363.253 252.76C362.754 252.467 362.219 252.32 361.647 252.32C361.075 252.32 360.547 252.459 360.062 252.738C359.579 253.017 359.183 253.427 358.875 253.97C358.581 254.498 358.435 255.129 358.435 255.862C358.435 256.595 358.581 257.241 358.875 257.798C359.183 258.341 359.579 258.759 360.062 259.052C360.561 259.345 361.089 259.492 361.647 259.492C362.219 259.492 362.754 259.353 363.253 259.074C363.751 258.781 364.147 258.37 364.441 257.842C364.734 257.299 364.881 256.654 364.881 255.906ZM374.357 258.766L371.783 264.948H369.803L371.233 258.766H374.357ZM105.389 279.812L101.825 292H98.5026L96.2806 283.486L94.0586 292H90.7146L87.1286 279.812H90.2526L92.4086 289.096L94.7406 279.812H97.9966L100.285 289.074L102.441 279.812H105.389ZM108.617 278.36C108.074 278.36 107.62 278.191 107.253 277.854C106.901 277.502 106.725 277.069 106.725 276.556C106.725 276.043 106.901 275.617 107.253 275.28C107.62 274.928 108.074 274.752 108.617 274.752C109.16 274.752 109.607 274.928 109.959 275.28C110.326 275.617 110.509 276.043 110.509 276.556C110.509 277.069 110.326 277.502 109.959 277.854C109.607 278.191 109.16 278.36 108.617 278.36ZM110.135 279.812V292H107.055V279.812H110.135ZM116.764 282.342V288.238C116.764 288.649 116.859 288.949 117.05 289.14C117.255 289.316 117.593 289.404 118.062 289.404H119.492V292H117.556C114.96 292 113.662 290.739 113.662 288.216V282.342H112.21V279.812H113.662V276.798H116.764V279.812H119.492V282.342H116.764ZM128.571 279.636C129.495 279.636 130.317 279.841 131.035 280.252C131.754 280.648 132.311 281.242 132.707 282.034C133.118 282.811 133.323 283.75 133.323 284.85V292H130.243V285.268C130.243 284.3 130.001 283.559 129.517 283.046C129.033 282.518 128.373 282.254 127.537 282.254C126.687 282.254 126.012 282.518 125.513 283.046C125.029 283.559 124.787 284.3 124.787 285.268V292H121.707V275.72H124.787V281.33C125.183 280.802 125.711 280.391 126.371 280.098C127.031 279.79 127.765 279.636 128.571 279.636ZM144.575 281.572C144.971 281.015 145.513 280.553 146.203 280.186C146.907 279.805 147.706 279.614 148.601 279.614C149.642 279.614 150.581 279.871 151.417 280.384C152.267 280.897 152.935 281.631 153.419 282.584C153.917 283.523 154.167 284.615 154.167 285.862C154.167 287.109 153.917 288.216 153.419 289.184C152.935 290.137 152.267 290.878 151.417 291.406C150.581 291.934 149.642 292.198 148.601 292.198C147.706 292.198 146.914 292.015 146.225 291.648C145.55 291.281 145 290.819 144.575 290.262V297.808H141.495V279.812H144.575V281.572ZM151.021 285.862C151.021 285.129 150.867 284.498 150.559 283.97C150.265 283.427 149.869 283.017 149.371 282.738C148.887 282.459 148.359 282.32 147.787 282.32C147.229 282.32 146.701 282.467 146.203 282.76C145.719 283.039 145.323 283.449 145.015 283.992C144.721 284.535 144.575 285.173 144.575 285.906C144.575 286.639 144.721 287.277 145.015 287.82C145.323 288.363 145.719 288.781 146.203 289.074C146.701 289.353 147.229 289.492 147.787 289.492C148.359 289.492 148.887 289.345 149.371 289.052C149.869 288.759 150.265 288.341 150.559 287.798C150.867 287.255 151.021 286.61 151.021 285.862ZM161.817 292.198C160.643 292.198 159.587 291.941 158.649 291.428C157.71 290.9 156.969 290.159 156.427 289.206C155.899 288.253 155.635 287.153 155.635 285.906C155.635 284.659 155.906 283.559 156.449 282.606C157.006 281.653 157.761 280.919 158.715 280.406C159.668 279.878 160.731 279.614 161.905 279.614C163.078 279.614 164.141 279.878 165.095 280.406C166.048 280.919 166.796 281.653 167.339 282.606C167.896 283.559 168.175 284.659 168.175 285.906C168.175 287.153 167.889 288.253 167.317 289.206C166.759 290.159 165.997 290.9 165.029 291.428C164.075 291.941 163.005 292.198 161.817 292.198ZM161.817 289.514C162.374 289.514 162.895 289.382 163.379 289.118C163.877 288.839 164.273 288.429 164.567 287.886C164.86 287.343 165.007 286.683 165.007 285.906C165.007 284.747 164.699 283.86 164.083 283.244C163.481 282.613 162.741 282.298 161.861 282.298C160.981 282.298 160.24 282.613 159.639 283.244C159.052 283.86 158.759 284.747 158.759 285.906C158.759 287.065 159.045 287.959 159.617 288.59C160.203 289.206 160.937 289.514 161.817 289.514ZM175.098 292.198C174.101 292.198 173.206 292.022 172.414 291.67C171.622 291.303 170.991 290.812 170.522 290.196C170.067 289.58 169.818 288.898 169.774 288.15H172.876C172.935 288.619 173.162 289.008 173.558 289.316C173.969 289.624 174.475 289.778 175.076 289.778C175.663 289.778 176.117 289.661 176.44 289.426C176.777 289.191 176.946 288.891 176.946 288.524C176.946 288.128 176.741 287.835 176.33 287.644C175.934 287.439 175.296 287.219 174.416 286.984C173.507 286.764 172.759 286.537 172.172 286.302C171.6 286.067 171.101 285.708 170.676 285.224C170.265 284.74 170.06 284.087 170.06 283.266C170.06 282.591 170.251 281.975 170.632 281.418C171.028 280.861 171.585 280.421 172.304 280.098C173.037 279.775 173.895 279.614 174.878 279.614C176.33 279.614 177.489 279.981 178.354 280.714C179.219 281.433 179.696 282.408 179.784 283.64H176.836C176.792 283.156 176.587 282.775 176.22 282.496C175.868 282.203 175.391 282.056 174.79 282.056C174.233 282.056 173.8 282.159 173.492 282.364C173.199 282.569 173.052 282.855 173.052 283.222C173.052 283.633 173.257 283.948 173.668 284.168C174.079 284.373 174.717 284.586 175.582 284.806C176.462 285.026 177.188 285.253 177.76 285.488C178.332 285.723 178.823 286.089 179.234 286.588C179.659 287.072 179.879 287.717 179.894 288.524C179.894 289.228 179.696 289.859 179.3 290.416C178.919 290.973 178.361 291.413 177.628 291.736C176.909 292.044 176.066 292.198 175.098 292.198ZM183.984 278.36C183.442 278.36 182.987 278.191 182.62 277.854C182.268 277.502 182.092 277.069 182.092 276.556C182.092 276.043 182.268 275.617 182.62 275.28C182.987 274.928 183.442 274.752 183.984 274.752C184.527 274.752 184.974 274.928 185.326 275.28C185.693 275.617 185.876 276.043 185.876 276.556C185.876 277.069 185.693 277.502 185.326 277.854C184.974 278.191 184.527 278.36 183.984 278.36ZM185.502 279.812V292H182.422V279.812H185.502ZM192.131 282.342V288.238C192.131 288.649 192.227 288.949 192.417 289.14C192.623 289.316 192.96 289.404 193.429 289.404H194.859V292H192.923C190.327 292 189.029 290.739 189.029 288.216V282.342H187.577V279.812H189.029V276.798H192.131V279.812H194.859V282.342H192.131ZM198.637 278.36C198.094 278.36 197.639 278.191 197.273 277.854C196.921 277.502 196.745 277.069 196.745 276.556C196.745 276.043 196.921 275.617 197.273 275.28C197.639 274.928 198.094 274.752 198.637 274.752C199.179 274.752 199.627 274.928 199.979 275.28C200.345 275.617 200.529 276.043 200.529 276.556C200.529 277.069 200.345 277.502 199.979 277.854C199.627 278.191 199.179 278.36 198.637 278.36ZM200.155 279.812V292H197.075V279.812H200.155ZM208.28 289.162L211.36 279.812H214.638L210.128 292H206.388L201.9 279.812H205.2L208.28 289.162ZM227.698 285.642C227.698 286.082 227.668 286.478 227.61 286.83H218.7C218.773 287.71 219.081 288.399 219.624 288.898C220.166 289.397 220.834 289.646 221.626 289.646C222.77 289.646 223.584 289.155 224.068 288.172H227.39C227.038 289.345 226.363 290.313 225.366 291.076C224.368 291.824 223.144 292.198 221.692 292.198C220.518 292.198 219.462 291.941 218.524 291.428C217.6 290.9 216.874 290.159 216.346 289.206C215.832 288.253 215.576 287.153 215.576 285.906C215.576 284.645 215.832 283.537 216.346 282.584C216.859 281.631 217.578 280.897 218.502 280.384C219.426 279.871 220.489 279.614 221.692 279.614C222.85 279.614 223.884 279.863 224.794 280.362C225.718 280.861 226.429 281.572 226.928 282.496C227.441 283.405 227.698 284.454 227.698 285.642ZM224.508 284.762C224.493 283.97 224.207 283.339 223.65 282.87C223.092 282.386 222.41 282.144 221.604 282.144C220.841 282.144 220.196 282.379 219.668 282.848C219.154 283.303 218.839 283.941 218.722 284.762H224.508ZM240.776 282.342H238.642V292H235.518V282.342H234.132V279.812H235.518V279.196C235.518 277.7 235.943 276.6 236.794 275.896C237.645 275.192 238.928 274.862 240.644 274.906V277.502C239.896 277.487 239.375 277.612 239.082 277.876C238.789 278.14 238.642 278.617 238.642 279.306V279.812H240.776V282.342ZM254.102 285.642C254.102 286.082 254.073 286.478 254.014 286.83H245.104C245.177 287.71 245.485 288.399 246.028 288.898C246.571 289.397 247.238 289.646 248.03 289.646C249.174 289.646 249.988 289.155 250.472 288.172H253.794C253.442 289.345 252.767 290.313 251.77 291.076C250.773 291.824 249.548 292.198 248.096 292.198C246.923 292.198 245.867 291.941 244.928 291.428C244.004 290.9 243.278 290.159 242.75 289.206C242.237 288.253 241.98 287.153 241.98 285.906C241.98 284.645 242.237 283.537 242.75 282.584C243.263 281.631 243.982 280.897 244.906 280.384C245.83 279.871 246.893 279.614 248.096 279.614C249.255 279.614 250.289 279.863 251.198 280.362C252.122 280.861 252.833 281.572 253.332 282.496C253.845 283.405 254.102 284.454 254.102 285.642ZM250.912 284.762C250.897 283.97 250.611 283.339 250.054 282.87C249.497 282.386 248.815 282.144 248.008 282.144C247.245 282.144 246.6 282.379 246.072 282.848C245.559 283.303 245.243 283.941 245.126 284.762H250.912ZM267.68 285.642C267.68 286.082 267.651 286.478 267.592 286.83H258.682C258.755 287.71 259.063 288.399 259.606 288.898C260.149 289.397 260.816 289.646 261.608 289.646C262.752 289.646 263.566 289.155 264.05 288.172H267.372C267.02 289.345 266.345 290.313 265.348 291.076C264.351 291.824 263.126 292.198 261.674 292.198C260.501 292.198 259.445 291.941 258.506 291.428C257.582 290.9 256.856 290.159 256.328 289.206C255.815 288.253 255.558 287.153 255.558 285.906C255.558 284.645 255.815 283.537 256.328 282.584C256.841 281.631 257.56 280.897 258.484 280.384C259.408 279.871 260.471 279.614 261.674 279.614C262.833 279.614 263.867 279.863 264.776 280.362C265.7 280.861 266.411 281.572 266.91 282.496C267.423 283.405 267.68 284.454 267.68 285.642ZM264.49 284.762C264.475 283.97 264.189 283.339 263.632 282.87C263.075 282.386 262.393 282.144 261.586 282.144C260.823 282.144 260.178 282.379 259.65 282.848C259.137 283.303 258.821 283.941 258.704 284.762H264.49ZM269.136 285.862C269.136 284.63 269.378 283.537 269.862 282.584C270.361 281.631 271.035 280.897 271.886 280.384C272.737 279.871 273.683 279.614 274.724 279.614C275.516 279.614 276.271 279.79 276.99 280.142C277.709 280.479 278.281 280.934 278.706 281.506V275.72H281.83V292H278.706V290.196C278.325 290.797 277.789 291.281 277.1 291.648C276.411 292.015 275.611 292.198 274.702 292.198C273.675 292.198 272.737 291.934 271.886 291.406C271.035 290.878 270.361 290.137 269.862 289.184C269.378 288.216 269.136 287.109 269.136 285.862ZM278.728 285.906C278.728 285.158 278.581 284.52 278.288 283.992C277.995 283.449 277.599 283.039 277.1 282.76C276.601 282.467 276.066 282.32 275.494 282.32C274.922 282.32 274.394 282.459 273.91 282.738C273.426 283.017 273.03 283.427 272.722 283.97C272.429 284.498 272.282 285.129 272.282 285.862C272.282 286.595 272.429 287.241 272.722 287.798C273.03 288.341 273.426 288.759 273.91 289.052C274.409 289.345 274.937 289.492 275.494 289.492C276.066 289.492 276.601 289.353 277.1 289.074C277.599 288.781 277.995 288.37 278.288 287.842C278.581 287.299 278.728 286.654 278.728 285.906ZM287.918 281.594C288.314 281.007 288.857 280.531 289.546 280.164C290.25 279.797 291.05 279.614 291.944 279.614C292.986 279.614 293.924 279.871 294.76 280.384C295.611 280.897 296.278 281.631 296.762 282.584C297.261 283.523 297.51 284.615 297.51 285.862C297.51 287.109 297.261 288.216 296.762 289.184C296.278 290.137 295.611 290.878 294.76 291.406C293.924 291.934 292.986 292.198 291.944 292.198C291.035 292.198 290.236 292.022 289.546 291.67C288.872 291.303 288.329 290.834 287.918 290.262V292H284.838V275.72H287.918V281.594ZM294.364 285.862C294.364 285.129 294.21 284.498 293.902 283.97C293.609 283.427 293.213 283.017 292.714 282.738C292.23 282.459 291.702 282.32 291.13 282.32C290.573 282.32 290.045 282.467 289.546 282.76C289.062 283.039 288.666 283.449 288.358 283.992C288.065 284.535 287.918 285.173 287.918 285.906C287.918 286.639 288.065 287.277 288.358 287.82C288.666 288.363 289.062 288.781 289.546 289.074C290.045 289.353 290.573 289.492 291.13 289.492C291.702 289.492 292.23 289.345 292.714 289.052C293.213 288.759 293.609 288.341 293.902 287.798C294.21 287.255 294.364 286.61 294.364 285.862ZM298.956 285.862C298.956 284.63 299.198 283.537 299.682 282.584C300.181 281.631 300.848 280.897 301.684 280.384C302.535 279.871 303.481 279.614 304.522 279.614C305.432 279.614 306.224 279.797 306.898 280.164C307.588 280.531 308.138 280.993 308.548 281.55V279.812H311.65V292H308.548V290.218C308.152 290.79 307.602 291.267 306.898 291.648C306.209 292.015 305.41 292.198 304.5 292.198C303.474 292.198 302.535 291.934 301.684 291.406C300.848 290.878 300.181 290.137 299.682 289.184C299.198 288.216 298.956 287.109 298.956 285.862ZM308.548 285.906C308.548 285.158 308.402 284.52 308.108 283.992C307.815 283.449 307.419 283.039 306.92 282.76C306.422 282.467 305.886 282.32 305.314 282.32C304.742 282.32 304.214 282.459 303.73 282.738C303.246 283.017 302.85 283.427 302.542 283.97C302.249 284.498 302.102 285.129 302.102 285.862C302.102 286.595 302.249 287.241 302.542 287.798C302.85 288.341 303.246 288.759 303.73 289.052C304.229 289.345 304.757 289.492 305.314 289.492C305.886 289.492 306.422 289.353 306.92 289.074C307.419 288.781 307.815 288.37 308.108 287.842C308.402 287.299 308.548 286.654 308.548 285.906ZM313.867 285.906C313.867 284.645 314.123 283.545 314.637 282.606C315.15 281.653 315.861 280.919 316.771 280.406C317.68 279.878 318.721 279.614 319.895 279.614C321.405 279.614 322.652 279.995 323.635 280.758C324.632 281.506 325.299 282.562 325.637 283.926H322.315C322.139 283.398 321.838 282.987 321.413 282.694C321.002 282.386 320.489 282.232 319.873 282.232C318.993 282.232 318.296 282.555 317.783 283.2C317.269 283.831 317.013 284.733 317.013 285.906C317.013 287.065 317.269 287.967 317.783 288.612C318.296 289.243 318.993 289.558 319.873 289.558C321.119 289.558 321.933 289.001 322.315 287.886H325.637C325.299 289.206 324.632 290.255 323.635 291.032C322.637 291.809 321.391 292.198 319.895 292.198C318.721 292.198 317.68 291.941 316.771 291.428C315.861 290.9 315.15 290.167 314.637 289.228C314.123 288.275 313.867 287.167 313.867 285.906ZM335.109 292L330.973 286.808V292H327.893V275.72H330.973V284.982L335.065 279.812H339.069L333.701 285.928L339.113 292H335.109ZM351.571 282.342H349.437V292H346.313V282.342H344.927V279.812H346.313V279.196C346.313 277.7 346.738 276.6 347.589 275.896C348.44 275.192 349.723 274.862 351.439 274.906V277.502C350.691 277.487 350.17 277.612 349.877 277.876C349.584 278.14 349.437 278.617 349.437 279.306V279.812H351.571V282.342ZM356.647 281.704C357.043 281.059 357.556 280.553 358.187 280.186C358.832 279.819 359.565 279.636 360.387 279.636V282.87H359.573C358.605 282.87 357.871 283.097 357.373 283.552C356.889 284.007 356.647 284.799 356.647 285.928V292H353.567V279.812H356.647V281.704ZM367.873 292.198C366.7 292.198 365.644 291.941 364.705 291.428C363.767 290.9 363.026 290.159 362.483 289.206C361.955 288.253 361.691 287.153 361.691 285.906C361.691 284.659 361.963 283.559 362.505 282.606C363.063 281.653 363.818 280.919 364.771 280.406C365.725 279.878 366.788 279.614 367.961 279.614C369.135 279.614 370.198 279.878 371.151 280.406C372.105 280.919 372.853 281.653 373.395 282.606C373.953 283.559 374.231 284.659 374.231 285.906C374.231 287.153 373.945 288.253 373.373 289.206C372.816 290.159 372.053 290.9 371.085 291.428C370.132 291.941 369.061 292.198 367.873 292.198ZM367.873 289.514C368.431 289.514 368.951 289.382 369.435 289.118C369.934 288.839 370.33 288.429 370.623 287.886C370.917 287.343 371.063 286.683 371.063 285.906C371.063 284.747 370.755 283.86 370.139 283.244C369.538 282.613 368.797 282.298 367.917 282.298C367.037 282.298 366.297 282.613 365.695 283.244C365.109 283.86 364.815 284.747 364.815 285.906C364.815 287.065 365.101 287.959 365.673 288.59C366.26 289.206 366.993 289.514 367.873 289.514ZM391.627 279.636C393.123 279.636 394.325 280.098 395.235 281.022C396.159 281.931 396.621 283.207 396.621 284.85V292H393.541V285.268C393.541 284.315 393.299 283.589 392.815 283.09C392.331 282.577 391.671 282.32 390.835 282.32C389.999 282.32 389.331 282.577 388.833 283.09C388.349 283.589 388.107 284.315 388.107 285.268V292H385.027V285.268C385.027 284.315 384.785 283.589 384.301 283.09C383.817 282.577 383.157 282.32 382.321 282.32C381.47 282.32 380.795 282.577 380.297 283.09C379.813 283.589 379.571 284.315 379.571 285.268V292H376.491V279.812H379.571V281.286C379.967 280.773 380.473 280.369 381.089 280.076C381.719 279.783 382.409 279.636 383.157 279.636C384.11 279.636 384.961 279.841 385.709 280.252C386.457 280.648 387.036 281.22 387.447 281.968C387.843 281.264 388.415 280.699 389.163 280.274C389.925 279.849 390.747 279.636 391.627 279.636ZM108.749 311.572C109.145 311.015 109.688 310.553 110.377 310.186C111.081 309.805 111.881 309.614 112.775 309.614C113.817 309.614 114.755 309.871 115.591 310.384C116.442 310.897 117.109 311.631 117.593 312.584C118.092 313.523 118.341 314.615 118.341 315.862C118.341 317.109 118.092 318.216 117.593 319.184C117.109 320.137 116.442 320.878 115.591 321.406C114.755 321.934 113.817 322.198 112.775 322.198C111.881 322.198 111.089 322.015 110.399 321.648C109.725 321.281 109.175 320.819 108.749 320.262V327.808H105.669V309.812H108.749V311.572ZM115.195 315.862C115.195 315.129 115.041 314.498 114.733 313.97C114.44 313.427 114.044 313.017 113.545 312.738C113.061 312.459 112.533 312.32 111.961 312.32C111.404 312.32 110.876 312.467 110.377 312.76C109.893 313.039 109.497 313.449 109.189 313.992C108.896 314.535 108.749 315.173 108.749 315.906C108.749 316.639 108.896 317.277 109.189 317.82C109.497 318.363 109.893 318.781 110.377 319.074C110.876 319.353 111.404 319.492 111.961 319.492C112.533 319.492 113.061 319.345 113.545 319.052C114.044 318.759 114.44 318.341 114.733 317.798C115.041 317.255 115.195 316.61 115.195 315.862ZM119.788 315.862C119.788 314.63 120.03 313.537 120.514 312.584C121.012 311.631 121.68 310.897 122.516 310.384C123.366 309.871 124.312 309.614 125.354 309.614C126.263 309.614 127.055 309.797 127.73 310.164C128.419 310.531 128.969 310.993 129.38 311.55V309.812H132.482V322H129.38V320.218C128.984 320.79 128.434 321.267 127.73 321.648C127.04 322.015 126.241 322.198 125.332 322.198C124.305 322.198 123.366 321.934 122.516 321.406C121.68 320.878 121.012 320.137 120.514 319.184C120.03 318.216 119.788 317.109 119.788 315.862ZM129.38 315.906C129.38 315.158 129.233 314.52 128.94 313.992C128.646 313.449 128.25 313.039 127.752 312.76C127.253 312.467 126.718 312.32 126.146 312.32C125.574 312.32 125.046 312.459 124.562 312.738C124.078 313.017 123.682 313.427 123.374 313.97C123.08 314.498 122.934 315.129 122.934 315.862C122.934 316.595 123.08 317.241 123.374 317.798C123.682 318.341 124.078 318.759 124.562 319.052C125.06 319.345 125.588 319.492 126.146 319.492C126.718 319.492 127.253 319.353 127.752 319.074C128.25 318.781 128.646 318.37 128.94 317.842C129.233 317.299 129.38 316.654 129.38 315.906ZM139.076 312.342V318.238C139.076 318.649 139.171 318.949 139.362 319.14C139.567 319.316 139.904 319.404 140.374 319.404H141.804V322H139.868C137.272 322 135.974 320.739 135.974 318.216V312.342H134.522V309.812H135.974V306.798H139.076V309.812H141.804V312.342H139.076ZM145.581 308.36C145.038 308.36 144.584 308.191 144.217 307.854C143.865 307.502 143.689 307.069 143.689 306.556C143.689 306.043 143.865 305.617 144.217 305.28C144.584 304.928 145.038 304.752 145.581 304.752C146.124 304.752 146.571 304.928 146.923 305.28C147.29 305.617 147.473 306.043 147.473 306.556C147.473 307.069 147.29 307.502 146.923 307.854C146.571 308.191 146.124 308.36 145.581 308.36ZM147.099 309.812V322H144.019V309.812H147.099ZM161.472 315.642C161.472 316.082 161.443 316.478 161.384 316.83H152.474C152.547 317.71 152.855 318.399 153.398 318.898C153.941 319.397 154.608 319.646 155.4 319.646C156.544 319.646 157.358 319.155 157.842 318.172H161.164C160.812 319.345 160.137 320.313 159.14 321.076C158.143 321.824 156.918 322.198 155.466 322.198C154.293 322.198 153.237 321.941 152.298 321.428C151.374 320.9 150.648 320.159 150.12 319.206C149.607 318.253 149.35 317.153 149.35 315.906C149.35 314.645 149.607 313.537 150.12 312.584C150.633 311.631 151.352 310.897 152.276 310.384C153.2 309.871 154.263 309.614 155.466 309.614C156.625 309.614 157.659 309.863 158.568 310.362C159.492 310.861 160.203 311.572 160.702 312.496C161.215 313.405 161.472 314.454 161.472 315.642ZM158.282 314.762C158.267 313.97 157.981 313.339 157.424 312.87C156.867 312.386 156.185 312.144 155.378 312.144C154.615 312.144 153.97 312.379 153.442 312.848C152.929 313.303 152.613 313.941 152.496 314.762H158.282ZM170.474 309.636C171.926 309.636 173.099 310.098 173.994 311.022C174.889 311.931 175.336 313.207 175.336 314.85V322H172.256V315.268C172.256 314.3 172.014 313.559 171.53 313.046C171.046 312.518 170.386 312.254 169.55 312.254C168.699 312.254 168.025 312.518 167.526 313.046C167.042 313.559 166.8 314.3 166.8 315.268V322H163.72V309.812H166.8V311.33C167.211 310.802 167.731 310.391 168.362 310.098C169.007 309.79 169.711 309.636 170.474 309.636ZM181.851 312.342V318.238C181.851 318.649 181.946 318.949 182.137 319.14C182.342 319.316 182.68 319.404 183.149 319.404H184.579V322H182.643C180.047 322 178.749 320.739 178.749 318.216V312.342H177.297V309.812H178.749V306.798H181.851V309.812H184.579V312.342H181.851ZM191.458 322.198C190.461 322.198 189.566 322.022 188.774 321.67C187.982 321.303 187.352 320.812 186.882 320.196C186.428 319.58 186.178 318.898 186.134 318.15H189.236C189.295 318.619 189.522 319.008 189.918 319.316C190.329 319.624 190.835 319.778 191.436 319.778C192.023 319.778 192.478 319.661 192.8 319.426C193.138 319.191 193.306 318.891 193.306 318.524C193.306 318.128 193.101 317.835 192.69 317.644C192.294 317.439 191.656 317.219 190.776 316.984C189.867 316.764 189.119 316.537 188.532 316.302C187.96 316.067 187.462 315.708 187.036 315.224C186.626 314.74 186.42 314.087 186.42 313.266C186.42 312.591 186.611 311.975 186.992 311.418C187.388 310.861 187.946 310.421 188.664 310.098C189.398 309.775 190.256 309.614 191.238 309.614C192.69 309.614 193.849 309.981 194.714 310.714C195.58 311.433 196.056 312.408 196.144 313.64H193.196C193.152 313.156 192.947 312.775 192.58 312.496C192.228 312.203 191.752 312.056 191.15 312.056C190.593 312.056 190.16 312.159 189.852 312.364C189.559 312.569 189.412 312.855 189.412 313.222C189.412 313.633 189.618 313.948 190.028 314.168C190.439 314.373 191.077 314.586 191.942 314.806C192.822 315.026 193.548 315.253 194.12 315.488C194.692 315.723 195.184 316.089 195.594 316.588C196.02 317.072 196.24 317.717 196.254 318.524C196.254 319.228 196.056 319.859 195.66 320.416C195.279 320.973 194.722 321.413 193.988 321.736C193.27 322.044 192.426 322.198 191.458 322.198ZM203.233 315.862C203.233 314.63 203.475 313.537 203.959 312.584C204.458 311.631 205.125 310.897 205.961 310.384C206.812 309.871 207.758 309.614 208.799 309.614C209.708 309.614 210.5 309.797 211.175 310.164C211.864 310.531 212.414 310.993 212.825 311.55V309.812H215.927V322H212.825V320.218C212.429 320.79 211.879 321.267 211.175 321.648C210.486 322.015 209.686 322.198 208.777 322.198C207.75 322.198 206.812 321.934 205.961 321.406C205.125 320.878 204.458 320.137 203.959 319.184C203.475 318.216 203.233 317.109 203.233 315.862ZM212.825 315.906C212.825 315.158 212.678 314.52 212.385 313.992C212.092 313.449 211.696 313.039 211.197 312.76C210.698 312.467 210.163 312.32 209.591 312.32C209.019 312.32 208.491 312.459 208.007 312.738C207.523 313.017 207.127 313.427 206.819 313.97C206.526 314.498 206.379 315.129 206.379 315.862C206.379 316.595 206.526 317.241 206.819 317.798C207.127 318.341 207.523 318.759 208.007 319.052C208.506 319.345 209.034 319.492 209.591 319.492C210.163 319.492 210.698 319.353 211.197 319.074C211.696 318.781 212.092 318.37 212.385 317.842C212.678 317.299 212.825 316.654 212.825 315.906ZM225.689 309.636C227.141 309.636 228.314 310.098 229.209 311.022C230.104 311.931 230.551 313.207 230.551 314.85V322H227.471V315.268C227.471 314.3 227.229 313.559 226.745 313.046C226.261 312.518 225.601 312.254 224.765 312.254C223.914 312.254 223.24 312.518 222.741 313.046C222.257 313.559 222.015 314.3 222.015 315.268V322H218.935V309.812H222.015V311.33C222.426 310.802 222.946 310.391 223.577 310.098C224.222 309.79 224.926 309.636 225.689 309.636ZM232.688 315.862C232.688 314.63 232.93 313.537 233.414 312.584C233.913 311.631 234.587 310.897 235.438 310.384C236.289 309.871 237.235 309.614 238.276 309.614C239.068 309.614 239.823 309.79 240.542 310.142C241.261 310.479 241.833 310.934 242.258 311.506V305.72H245.382V322H242.258V320.196C241.877 320.797 241.341 321.281 240.652 321.648C239.963 322.015 239.163 322.198 238.254 322.198C237.227 322.198 236.289 321.934 235.438 321.406C234.587 320.878 233.913 320.137 233.414 319.184C232.93 318.216 232.688 317.109 232.688 315.862ZM242.28 315.906C242.28 315.158 242.133 314.52 241.84 313.992C241.547 313.449 241.151 313.039 240.652 312.76C240.153 312.467 239.618 312.32 239.046 312.32C238.474 312.32 237.946 312.459 237.462 312.738C236.978 313.017 236.582 313.427 236.274 313.97C235.981 314.498 235.834 315.129 235.834 315.862C235.834 316.595 235.981 317.241 236.274 317.798C236.582 318.341 236.978 318.759 237.462 319.052C237.961 319.345 238.489 319.492 239.046 319.492C239.618 319.492 240.153 319.353 240.652 319.074C241.151 318.781 241.547 318.37 241.84 317.842C242.133 317.299 242.28 316.654 242.28 315.906ZM252.84 315.906C252.84 314.645 253.097 313.545 253.61 312.606C254.124 311.653 254.835 310.919 255.744 310.406C256.654 309.878 257.695 309.614 258.868 309.614C260.379 309.614 261.626 309.995 262.608 310.758C263.606 311.506 264.273 312.562 264.61 313.926H261.288C261.112 313.398 260.812 312.987 260.386 312.694C259.976 312.386 259.462 312.232 258.846 312.232C257.966 312.232 257.27 312.555 256.756 313.2C256.243 313.831 255.986 314.733 255.986 315.906C255.986 317.065 256.243 317.967 256.756 318.612C257.27 319.243 257.966 319.558 258.846 319.558C260.093 319.558 260.907 319.001 261.288 317.886H264.61C264.273 319.206 263.606 320.255 262.608 321.032C261.611 321.809 260.364 322.198 258.868 322.198C257.695 322.198 256.654 321.941 255.744 321.428C254.835 320.9 254.124 320.167 253.61 319.228C253.097 318.275 252.84 317.167 252.84 315.906ZM272.279 322.198C271.105 322.198 270.049 321.941 269.111 321.428C268.172 320.9 267.431 320.159 266.889 319.206C266.361 318.253 266.097 317.153 266.097 315.906C266.097 314.659 266.368 313.559 266.911 312.606C267.468 311.653 268.223 310.919 269.177 310.406C270.13 309.878 271.193 309.614 272.367 309.614C273.54 309.614 274.603 309.878 275.557 310.406C276.51 310.919 277.258 311.653 277.801 312.606C278.358 313.559 278.637 314.659 278.637 315.906C278.637 317.153 278.351 318.253 277.779 319.206C277.221 320.159 276.459 320.9 275.491 321.428C274.537 321.941 273.467 322.198 272.279 322.198ZM272.279 319.514C272.836 319.514 273.357 319.382 273.841 319.118C274.339 318.839 274.735 318.429 275.029 317.886C275.322 317.343 275.469 316.683 275.469 315.906C275.469 314.747 275.161 313.86 274.545 313.244C273.943 312.613 273.203 312.298 272.323 312.298C271.443 312.298 270.702 312.613 270.101 313.244C269.514 313.86 269.221 314.747 269.221 315.906C269.221 317.065 269.507 317.959 270.079 318.59C270.665 319.206 271.399 319.514 272.279 319.514ZM283.976 305.72V322H280.896V305.72H283.976ZM290.099 305.72V322H287.019V305.72H290.099ZM304.472 315.642C304.472 316.082 304.443 316.478 304.384 316.83H295.474C295.547 317.71 295.855 318.399 296.398 318.898C296.941 319.397 297.608 319.646 298.4 319.646C299.544 319.646 300.358 319.155 300.842 318.172H304.164C303.812 319.345 303.137 320.313 302.14 321.076C301.143 321.824 299.918 322.198 298.466 322.198C297.293 322.198 296.237 321.941 295.298 321.428C294.374 320.9 293.648 320.159 293.12 319.206C292.607 318.253 292.35 317.153 292.35 315.906C292.35 314.645 292.607 313.537 293.12 312.584C293.633 311.631 294.352 310.897 295.276 310.384C296.2 309.871 297.263 309.614 298.466 309.614C299.625 309.614 300.659 309.863 301.568 310.362C302.492 310.861 303.203 311.572 303.702 312.496C304.215 313.405 304.472 314.454 304.472 315.642ZM301.282 314.762C301.267 313.97 300.981 313.339 300.424 312.87C299.867 312.386 299.185 312.144 298.378 312.144C297.615 312.144 296.97 312.379 296.442 312.848C295.929 313.303 295.613 313.941 295.496 314.762H301.282ZM305.928 315.862C305.928 314.63 306.17 313.537 306.654 312.584C307.153 311.631 307.82 310.897 308.656 310.384C309.507 309.871 310.453 309.614 311.494 309.614C312.403 309.614 313.195 309.797 313.87 310.164C314.559 310.531 315.109 310.993 315.52 311.55V309.812H318.622V322H315.52V320.218C315.124 320.79 314.574 321.267 313.87 321.648C313.181 322.015 312.381 322.198 311.472 322.198C310.445 322.198 309.507 321.934 308.656 321.406C307.82 320.878 307.153 320.137 306.654 319.184C306.17 318.216 305.928 317.109 305.928 315.862ZM315.52 315.906C315.52 315.158 315.373 314.52 315.08 313.992C314.787 313.449 314.391 313.039 313.892 312.76C313.393 312.467 312.858 312.32 312.286 312.32C311.714 312.32 311.186 312.459 310.702 312.738C310.218 313.017 309.822 313.427 309.514 313.97C309.221 314.498 309.074 315.129 309.074 315.862C309.074 316.595 309.221 317.241 309.514 317.798C309.822 318.341 310.218 318.759 310.702 319.052C311.201 319.345 311.729 319.492 312.286 319.492C312.858 319.492 313.393 319.353 313.892 319.074C314.391 318.781 314.787 318.37 315.08 317.842C315.373 317.299 315.52 316.654 315.52 315.906ZM326.404 309.614C327.314 309.614 328.113 309.797 328.802 310.164C329.492 310.516 330.034 310.978 330.43 311.55V309.812H333.532V322.088C333.532 323.217 333.305 324.222 332.85 325.102C332.396 325.997 331.714 326.701 330.804 327.214C329.895 327.742 328.795 328.006 327.504 328.006C325.774 328.006 324.351 327.603 323.236 326.796C322.136 325.989 321.513 324.889 321.366 323.496H324.424C324.586 324.053 324.93 324.493 325.458 324.816C326.001 325.153 326.654 325.322 327.416 325.322C328.311 325.322 329.037 325.051 329.594 324.508C330.152 323.98 330.43 323.173 330.43 322.088V320.196C330.034 320.768 329.484 321.245 328.78 321.626C328.091 322.007 327.299 322.198 326.404 322.198C325.378 322.198 324.439 321.934 323.588 321.406C322.738 320.878 322.063 320.137 321.564 319.184C321.08 318.216 320.838 317.109 320.838 315.862C320.838 314.63 321.08 313.537 321.564 312.584C322.063 311.631 322.73 310.897 323.566 310.384C324.417 309.871 325.363 309.614 326.404 309.614ZM330.43 315.906C330.43 315.158 330.284 314.52 329.99 313.992C329.697 313.449 329.301 313.039 328.802 312.76C328.304 312.467 327.768 312.32 327.196 312.32C326.624 312.32 326.096 312.459 325.612 312.738C325.128 313.017 324.732 313.427 324.424 313.97C324.131 314.498 323.984 315.129 323.984 315.862C323.984 316.595 324.131 317.241 324.424 317.798C324.732 318.341 325.128 318.759 325.612 319.052C326.111 319.345 326.639 319.492 327.196 319.492C327.768 319.492 328.304 319.353 328.802 319.074C329.301 318.781 329.697 318.37 329.99 317.842C330.284 317.299 330.43 316.654 330.43 315.906ZM348.046 309.812V322H344.944V320.46C344.548 320.988 344.028 321.406 343.382 321.714C342.752 322.007 342.062 322.154 341.314 322.154C340.361 322.154 339.518 321.956 338.784 321.56C338.051 321.149 337.472 320.555 337.046 319.778C336.636 318.986 336.43 318.047 336.43 316.962V309.812H339.51V316.522C339.51 317.49 339.752 318.238 340.236 318.766C340.72 319.279 341.38 319.536 342.216 319.536C343.067 319.536 343.734 319.279 344.218 318.766C344.702 318.238 344.944 317.49 344.944 316.522V309.812H348.046ZM362.415 315.642C362.415 316.082 362.386 316.478 362.327 316.83H353.417C353.491 317.71 353.799 318.399 354.341 318.898C354.884 319.397 355.551 319.646 356.343 319.646C357.487 319.646 358.301 319.155 358.785 318.172H362.107C361.755 319.345 361.081 320.313 360.083 321.076C359.086 321.824 357.861 322.198 356.409 322.198C355.236 322.198 354.18 321.941 353.241 321.428C352.317 320.9 351.591 320.159 351.063 319.206C350.55 318.253 350.293 317.153 350.293 315.906C350.293 314.645 350.55 313.537 351.063 312.584C351.577 311.631 352.295 310.897 353.219 310.384C354.143 309.871 355.207 309.614 356.409 309.614C357.568 309.614 358.602 309.863 359.511 310.362C360.435 310.861 361.147 311.572 361.645 312.496C362.159 313.405 362.415 314.454 362.415 315.642ZM359.225 314.762C359.211 313.97 358.925 313.339 358.367 312.87C357.81 312.386 357.128 312.144 356.321 312.144C355.559 312.144 354.913 312.379 354.385 312.848C353.872 313.303 353.557 313.941 353.439 314.762H359.225ZM369.328 322.198C368.33 322.198 367.436 322.022 366.644 321.67C365.852 321.303 365.221 320.812 364.752 320.196C364.297 319.58 364.048 318.898 364.004 318.15H367.106C367.164 318.619 367.392 319.008 367.788 319.316C368.198 319.624 368.704 319.778 369.306 319.778C369.892 319.778 370.347 319.661 370.67 319.426C371.007 319.191 371.176 318.891 371.176 318.524C371.176 318.128 370.97 317.835 370.56 317.644C370.164 317.439 369.526 317.219 368.646 316.984C367.736 316.764 366.988 316.537 366.402 316.302C365.83 316.067 365.331 315.708 364.906 315.224C364.495 314.74 364.29 314.087 364.29 313.266C364.29 312.591 364.48 311.975 364.862 311.418C365.258 310.861 365.815 310.421 366.534 310.098C367.267 309.775 368.125 309.614 369.108 309.614C370.56 309.614 371.718 309.981 372.584 310.714C373.449 311.433 373.926 312.408 374.014 313.64H371.066C371.022 313.156 370.816 312.775 370.45 312.496C370.098 312.203 369.621 312.056 369.02 312.056C368.462 312.056 368.03 312.159 367.722 312.364C367.428 312.569 367.282 312.855 367.282 313.222C367.282 313.633 367.487 313.948 367.898 314.168C368.308 314.373 368.946 314.586 369.812 314.806C370.692 315.026 371.418 315.253 371.99 315.488C372.562 315.723 373.053 316.089 373.464 316.588C373.889 317.072 374.109 317.717 374.124 318.524C374.124 319.228 373.926 319.859 373.53 320.416C373.148 320.973 372.591 321.413 371.858 321.736C371.139 322.044 370.296 322.198 369.328 322.198ZM378.016 322.154C377.458 322.154 376.996 321.985 376.63 321.648C376.278 321.296 376.102 320.863 376.102 320.35C376.102 319.837 376.278 319.411 376.63 319.074C376.996 318.722 377.458 318.546 378.016 318.546C378.558 318.546 379.006 318.722 379.358 319.074C379.71 319.411 379.886 319.837 379.886 320.35C379.886 320.863 379.71 321.296 379.358 321.648C379.006 321.985 378.558 322.154 378.016 322.154Z" fill="white"/>
<path d="M243.78 220.956C243.824 219.211 244.33 217.876 245.298 216.952C246.281 216.028 247.667 215.566 249.456 215.566C250.615 215.566 251.605 215.764 252.426 216.16C253.247 216.556 253.863 217.091 254.274 217.766C254.699 218.441 254.912 219.203 254.912 220.054C254.912 221.081 254.67 221.887 254.186 222.474C253.702 223.046 253.159 223.435 252.558 223.64V223.728C254.318 224.388 255.198 225.613 255.198 227.402C255.198 228.341 254.978 229.169 254.538 229.888C254.098 230.607 253.467 231.164 252.646 231.56C251.839 231.956 250.879 232.154 249.764 232.154C247.857 232.154 246.361 231.699 245.276 230.79C244.191 229.881 243.633 228.458 243.604 226.522H248.356C248.327 227.05 248.4 227.453 248.576 227.732C248.767 227.996 249.089 228.128 249.544 228.128C249.808 228.128 250.028 228.033 250.204 227.842C250.38 227.637 250.468 227.373 250.468 227.05C250.468 226.639 250.329 226.331 250.05 226.126C249.786 225.906 249.331 225.796 248.686 225.796H247.872V221.858H248.664C249.661 221.917 250.16 221.521 250.16 220.67C250.16 220.303 250.079 220.032 249.918 219.856C249.771 219.68 249.581 219.592 249.346 219.592C248.803 219.592 248.532 220.047 248.532 220.956H243.78ZM257.029 223.728C257.029 221.191 257.565 219.196 258.635 217.744C259.721 216.292 261.385 215.566 263.629 215.566C265.859 215.566 267.516 216.299 268.601 217.766C269.687 219.218 270.229 221.205 270.229 223.728C270.229 226.265 269.687 228.267 268.601 229.734C267.516 231.186 265.859 231.912 263.629 231.912C261.385 231.912 259.721 231.186 258.635 229.734C257.565 228.267 257.029 226.265 257.029 223.728ZM265.411 223.728C265.411 222.555 265.294 221.675 265.059 221.088C264.825 220.487 264.348 220.186 263.629 220.186C262.896 220.186 262.412 220.487 262.177 221.088C261.943 221.675 261.825 222.555 261.825 223.728C261.825 224.916 261.943 225.811 262.177 226.412C262.412 226.999 262.896 227.292 263.629 227.292C264.348 227.292 264.825 226.999 265.059 226.412C265.294 225.811 265.411 224.916 265.411 223.728ZM271.354 220.12C271.354 218.829 271.72 217.847 272.454 217.172C273.187 216.483 274.148 216.138 275.336 216.138C276.509 216.138 277.455 216.483 278.174 217.172C278.907 217.847 279.274 218.829 279.274 220.12C279.274 221.411 278.907 222.393 278.174 223.068C277.455 223.743 276.509 224.08 275.336 224.08C274.148 224.08 273.187 223.743 272.454 223.068C271.72 222.393 271.354 221.411 271.354 220.12ZM287.656 216.358L279.45 232H274.786L282.992 216.358H287.656ZM275.292 218.976C274.793 218.976 274.544 219.357 274.544 220.12C274.544 220.868 274.793 221.242 275.292 221.242C275.556 221.242 275.754 221.147 275.886 220.956C276.032 220.765 276.106 220.487 276.106 220.12C276.106 219.739 276.032 219.453 275.886 219.262C275.754 219.071 275.556 218.976 275.292 218.976ZM283.168 228.238C283.168 226.947 283.534 225.965 284.268 225.29C285.001 224.601 285.954 224.256 287.128 224.256C288.316 224.256 289.269 224.601 289.988 225.29C290.706 225.965 291.066 226.947 291.066 228.238C291.066 229.529 290.706 230.519 289.988 231.208C289.269 231.883 288.316 232.22 287.128 232.22C285.954 232.22 285.001 231.883 284.268 231.208C283.534 230.519 283.168 229.529 283.168 228.238ZM287.106 227.094C286.592 227.094 286.336 227.475 286.336 228.238C286.336 229.001 286.592 229.382 287.106 229.382C287.355 229.382 287.546 229.287 287.678 229.096C287.824 228.905 287.898 228.619 287.898 228.238C287.898 227.871 287.824 227.593 287.678 227.402C287.546 227.197 287.355 227.094 287.106 227.094Z" fill="#4A4A4A"/>
<defs>
<clipPath id="clip0">
<rect width="51.6955" height="78.5771" fill="white" transform="translate(69.8506 129.249) rotate(-151.006)"/>
</clipPath>
</defs>
</svg>
